/* XPM */
static char * plaid [] = {
/* plaid pixmap 
 * width height ncolors chars_per_pixel */
"22 22 3 1",
/* colors 
 */
"  s dark_color m black c black",
". s light_color m white c red",
"X s lines_in_dark m white c yellow",
/* pixels */
" . .   . .      X     ",
". . . . . .           ",
" . .   . .      X     ",
". . . . . .           ",
" . .   . .      X     ",
"XXXXX XXXXXX X X X X X",
" . .   . .      X     ",
". . . . . .           ",
" . .   . .      X     ",
". . . . . .           ",
" . .   . .      X     ",
"..... ..... . . X . . ",
"..... ...... . .X. . .",
"..... ..... . . X . . ",
"..... ...... . .X. . .",
"..... ..... . . X . . ",
"                      ",
"..... ..... . . X . . ",
"..... ...... . .X. . .",
"..... ..... . . X . . ",
"..... ...... . .X. . .",
"..... ..... . . X . . "};
