  0
SECTION
  2
HEADER
  9
$ACADVER
  1
AC1006
  9
$INSBASE
 10
0.0
 20
0.0
 30
0.0
  9
$EXTMIN
 10
22105.97
 20
236423.62
  9
$EXTMAX
 10
91362.39
 20
292243.18
  9
$LIMMIN
 10
12345.0
 20
234567.0
  9
$LIMMAX
 10
87654.0
 20
298765.0
  9
$ORTHOMODE
 70
     0
  9
$REGENMODE
 70
     1
  9
$FILLMODE
 70
     1
  9
$QTEXTMODE
 70
     0
  9
$MIRRTEXT
 70
     1
  9
$DRAGMODE
 70
     2
  9
$LTSCALE
 40
1.0
  9
$OSMODE
 70
     0
  9
$ATTMODE
 70
     1
  9
$TEXTSIZE
 40
0.2
  9
$TRACEWID
 40
0.05
  9
$TEXTSTYLE
  7
STANDARD
  9
$CLAYER
  8
MIXED
  9
$CELTYPE
  6
BYLAYER
  9
$CECOLOR
 62
   256
  9
$DIMSCALE
 40
1.0
  9
$DIMASZ
 40
0.18
  9
$DIMEXO
 40
0.06
  9
$DIMDLI
 40
0.38
  9
$DIMRND
 40
0.0
  9
$DIMDLE
 40
0.0
  9
$DIMEXE
 40
0.18
  9
$DIMTP
 40
0.0
  9
$DIMTM
 40
0.0
  9
$DIMTXT
 40
0.18
  9
$DIMCEN
 40
0.09
  9
$DIMTSZ
 40
0.0
  9
$DIMTOL
 70
     0
  9
$DIMLIM
 70
     0
  9
$DIMTIH
 70
     1
  9
$DIMTOH
 70
     1
  9
$DIMSE1
 70
     0
  9
$DIMSE2
 70
     0
  9
$DIMTAD
 70
     0
  9
$DIMZIN
 70
     0
  9
$DIMBLK
  1

  9
$DIMASO
 70
     1
  9
$DIMSHO
 70
     0
  9
$DIMPOST
  1

  9
$DIMAPOST
  1

  9
$DIMALT
 70
     0
  9
$DIMALTD
 70
     2
  9
$DIMALTF
 40
25.4
  9
$DIMLFAC
 40
1.0
  9
$DIMTOFL
 70
     0
  9
$DIMTVP
 40
0.0
  9
$DIMTIX
 70
     0
  9
$DIMSOXD
 70
     0
  9
$DIMSAH
 70
     0
  9
$DIMBLK1
  1

  9
$DIMBLK2
  1

  9
$LUNITS
 70
     2
  9
$LUPREC
 70
     4
  9
$AXISMODE
 70
     0
  9
$AXISUNIT
 10
0.0
 20
0.0
  9
$SKETCHINC
 40
0.1
  9
$FILLETRAD
 40
0.0
  9
$AUNITS
 70
     0
  9
$AUPREC
 70
     0
  9
$MENU
  1
acad
  9
$ELEVATION
 40
0.0
  9
$THICKNESS
 40
0.0
  9
$LIMCHECK
 70
     0
  9
$BLIPMODE
 70
     1
  9
$CHAMFERA
 40
0.0
  9
$CHAMFERB
 40
0.0
  9
$SKPOLY
 70
     0
  9
$TDCREATE
 40
244781.5596780092
  9
$TDUPDATE
 40
2447817.5596780092
  9
$TDINDWG
 40
0.0000000000
  9
$TDUSRTIMER
 40
0.0000000000
  9
$USRTIMER
 70
     1
  9
$ANGBASE
 50
0.0
  9
$ANGDIR
 70
     0
  9
$PDMODE
 70
     0
  9
$PDSIZE
 40
0.0
  9
$PLINEWID
 40
0.0
  9
$COORDS
 70
     0
  9
$SPLFRAME
 70
     0
  9
$SPLINETYPE
 70
     6
  9
$SPLINESEGS
 70
     8
  9
$ATTDIA
 70
     0
  9
$ATTREQ
 70
     1
  9
$HANDLING
 70
     0
  9
$HANDSEED
  5
0
  9
$SURFTAB1
 70
     6
  9
$SURFTAB2
 70
     6
  9
$SURFTYPE
 70
     6
  9
$SURFU
 70
     6
  9
$SURFV
 70
     6
  9
$FLATLAND
 70
     0
  9
$UCSNAME
  2

  9
$UCSORG
 10
0.0
 20
0.0
 30
0.0
  9
$UCSXDIR
 10
1.0
 20
0.0
 30
0.0
  9
$UCSYDIR
 10
0.0
 20
1.0
 30
0.0
  9
$USERI1
 70
     0
  9
$USERI2
 70
     0
  9
$USERI3
 70
     0
  9
$USERI4
 70
     0
  9
$USERI5
 70
     0
  9
$USERR1
 40
0.0
  9
$USERR2
 40
0.0
  9
$USERR3
 40
0.0
  9
$USERR4
 40
0.0
  9
$USERR5
 40
0.0
  9
$WORLDVIEW
 70
     1
  0
ENDSEC
  0
SECTION
  2
TABLES
  0
TABLE
  2
VPORT
 70
     2
  0
VPORT
  2
*ACTIVE
 70
     0
 10
0.0
 20
0.0
 11
1.0
 21
1.0
 12
61847.072289
 22
266666.0
 13
0.0
 23
0.0
 14
1.0
 24
1.0
 15
0.0
 25
0.0
 16
0.0
 26
0.0
 36
1.0
 17
0.0
 27
0.0
 37
0.0
 40
64198.0
 41
1.542169
 42
50.0
 43
0.0
 44
0.0
 50
0.0
 51
0.0
 71
     0
 72
   100
 73
     1
 74
     1
 75
     0
 76
     0
 77
     0
 78
     0
  0
ENDTAB
  0
TABLE
  2
LTYPE
 70
     1
  0
LTYPE
  2
CONTINUOUS
 70
    64
  3
Solid line
 72
    65
 73
     0
 40
0.0
  0
ENDTAB
  0
TABLE
  2
LAYER
 70
     9
  0
LAYER
  2
0
 70
     0
 62
     7
  6
CONTINUOUS
  0
LAYER
  2
FIRSTPOINT
 70
    64
 62
     7
  6
CONTINUOUS
  0
LAYER
  2
SECONDPOINT
 70
    64
 62
     7
  6
CONTINUOUS
  0
LAYER
  2
THIRDPOINT
 70
    64
 62
     7
  6
CONTINUOUS
  0
LAYER
  2
FIRSTLINE
 70
    64
 62
     7
  6
CONTINUOUS
  0
LAYER
  2
SECONDLINE
 70
    64
 62
     7
  6
CONTINUOUS
  0
LAYER
  2
THIRDLINE
 70
    64
 62
     7
  6
CONTINUOUS
  0
LAYER
  2
GARBAGE
 70
    64
 62
     7
  6
CONTINUOUS
  0
LAYER
  2
MIXED
 70
    64
 62
     7
  6
CONTINUOUS
  0
ENDTAB
  0
TABLE
  2
STYLE
 70
     1
  0
STYLE
  2
STANDARD
 70
     0
 40
0.0
 41
1.0
 50
0.0
 71
     0
 42
0.2
  3
txt
  4

  0
ENDTAB
  0
TABLE
  2
VIEW
 70
     0
  0
ENDTAB
  0
TABLE
  2
UCS
 70
     0
  0
ENDTAB
  0
TABLE
  2
DWGMGR
 70
     0
  0
ENDTAB
  0
ENDSEC
  0
SECTION
  2
BLOCKS
  0
ENDSEC
  0
SECTION
  2
ENTITIES
  0
POINT
  8
FIRSTPOINT
 10
22105.97
 20
250383.9
 30
0.0
  0
POINT
  8
SECONDPOINT
 10
50304.34
 20
262169.04
 30
0.0
  0
POINT
  8
SECONDPOINT
 10
63318.96
 20
266666.0
 30
0.0
  0
POINT
  8
SECONDPOINT
 10
43332.21
 20
260928.5
 30
0.0
  0
POINT
  8
THIRDPOINT
 10
42402.6
 20
272403.5
 30
0.0
  0
POINT
  8
THIRDPOINT
 10
47205.61
 20
272403.5
 30
0.0
  0
POINT
  8
THIRDPOINT
 10
51698.76
 20
274264.31
 30
0.0
  0
POINT
  8
FIRSTPOINT
 10
33881.11
 20
265735.59
 30
0.0
  0
POINT
  8
THIRDPOINT
 10
52008.63
 20
270232.56
 30
0.0
  0
POINT
  8
THIRDPOINT
 10
52473.44
 20
272093.37
 30
0.0
  0
POINT
  8
THIRDPOINT
 10
45191.45
 20
273178.84
 30
0.0
  0
POINT
  8
THIRDPOINT
 10
44726.64
 20
273333.91
 30
0.0
  0
POINT
  8
THIRDPOINT
 10
44416.77
 20
273488.98
 30
0.0
  0
POINT
  8
THIRDPOINT
 10
42092.72
 20
273333.91
 30
0.0
  0
POINT
  8
THIRDPOINT
 10
34655.79
 20
272868.71
 30
0.0
  0
POINT
  8
THIRDPOINT
 10
41472.98
 20
276745.4
 30
0.0
  0
POINT
  8
THIRDPOINT
 10
49684.59
 20
276435.26
 30
0.0
  0
POINT
  8
THIRDPOINT
 10
53248.12
 20
276435.26
 30
0.0
  0
POINT
  8
THIRDPOINT
 10
54642.55
 20
273333.91
 30
0.0
  0
LINE
  8
FIRSTLINE
 10
60530.12
 20
274109.25
 30
0.0
 11
55572.16
 21
259998.09
 31
0.0
  0
LINE
  8
FIRSTLINE
 10
35120.6
 20
258602.48
 30
0.0
 11
34965.67
 21
264960.26
 31
0.0
  0
LINE
  8
FIRSTLINE
 10
34500.86
 20
282793.03
 30
0.0
 11
57896.2
 21
282948.1
 31
0.0
  0
LINE
  8
FIRSTLINE
 10
57896.2
 20
282948.1
 30
0.0
 11
51079.02
 21
284808.91
 31
0.0
  0
LINE
  8
FIRSTLINE
 10
51079.02
 20
284808.91
 30
0.0
 11
63628.84
 21
284653.85
 31
0.0
  0
LINE
  8
FIRSTLINE
 10
63628.84
 20
284653.85
 30
0.0
 11
59755.44
 21
280311.95
 31
0.0
  0
LINE
  8
FIRSTLINE
 10
59755.44
 20
280311.95
 30
0.0
 11
73699.68
 21
280156.88
 31
0.0
  0
LINE
  8
FIRSTLINE
 10
73699.68
 20
280156.88
 30
0.0
 11
64868.33
 21
278451.14
 31
0.0
  0
LINE
  8
FIRSTLINE
 10
64868.33
 20
278451.14
 30
0.0
 11
69981.22
 21
273023.77
 31
0.0
  0
LINE
  8
FIRSTLINE
 10
69981.22
 20
273023.77
 30
0.0
 11
63009.09
 21
270387.62
 31
0.0
  0
LINE
  8
FIRSTLINE
 10
63009.09
 20
270387.62
 30
0.0
 11
75094.11
 21
266200.8
 31
0.0
  0
LINE
  8
FIRSTLINE
 10
75094.11
 20
266200.8
 30
0.0
 11
66107.81
 21
262944.38
 31
0.0
  0
LINE
  8
FIRSTLINE
 10
66107.81
 20
262944.38
 30
0.0
 11
72460.19
 21
262634.24
 31
0.0
  0
LINE
  8
FIRSTLINE
 10
72460.19
 20
262634.24
 30
0.0
 11
67967.05
 21
260928.5
 31
0.0
  0
LINE
  8
FIRSTLINE
 10
67967.05
 20
260928.5
 30
0.0
 11
76178.66
 21
258757.55
 31
0.0
  0
LINE
  8
FIRSTLINE
 10
76178.66
 20
258757.55
 30
0.0
 11
69206.54
 21
258447.42
 31
0.0
  0
LINE
  8
FIRSTLINE
 10
69206.54
 20
258447.42
 30
0.0
 11
61924.54
 21
258292.35
 31
0.0
  0
LINE
  8
FIRSTLINE
 10
61924.54
 20
258292.35
 30
0.0
 11
61769.6
 21
255501.13
 31
0.0
  0
POINT
  8
THIRDPOINT
 10
39458.81
 20
273178.84
 30
0.0
  0
LINE
  8
FIRSTLINE
 10
61769.6
 20
255501.13
 30
0.0
 11
72615.13
 21
255501.13
 31
0.0
  0
LINE
  8
FIRSTLINE
 10
72615.13
 20
255501.13
 30
0.0
 11
66107.81
 21
252864.98
 31
0.0
  0
POLYLINE
  8
SECONDLINE
 66
     1
 10
0.0
 20
0.0
 30
0.0
  0
VERTEX
  8
SECONDLINE
 10
45811.19
 20
290546.42
 30
0.0
  0
VERTEX
  8
SECONDLINE
 10
40698.3
 20
279691.68
 30
0.0
  0
VERTEX
  8
SECONDLINE
 10
52783.31
 20
278916.34
 30
0.0
  0
VERTEX
  8
SECONDLINE
 10
38064.39
 20
277055.53
 30
0.0
  0
VERTEX
  8
SECONDLINE
 10
47205.61
 20
268836.95
 30
0.0
  0
VERTEX
  8
SECONDLINE
 10
41627.92
 20
267131.2
 30
0.0
  0
VERTEX
  8
SECONDLINE
 10
45036.51
 20
274419.38
 30
0.0
  0
VERTEX
  8
SECONDLINE
 10
51543.82
 20
270387.62
 30
0.0
  0
SEQEND
  8
SECONDLINE
  0
LINE
  8
SECONDLINE
 10
31402.14
 20
271783.23
 30
0.0
 11
31866.94
 21
280622.09
 31
0.0
  0
LINE
  8
SECONDLINE
 10
31866.94
 20
280622.09
 30
0.0
 11
34500.86
 21
278606.21
 31
0.0
  0
LINE
  8
SECONDLINE
 10
34500.86
 20
278606.21
 30
0.0
 11
26754.05
 21
278451.14
 31
0.0
  0
LINE
  8
SECONDLINE
 10
26754.05
 20
278451.14
 30
0.0
 11
32486.69
 21
277520.73
 31
0.0
  0
LINE
  8
SECONDLINE
 10
32486.69
 20
277520.73
 30
0.0
 11
27218.86
 21
277210.6
 31
0.0
  0
LINE
  8
SECONDLINE
 10
27218.86
 20
277210.6
 30
0.0
 11
37599.58
 21
273488.98
 31
0.0
  0
LINE
  8
THIRDLINE
 10
36205.15
 20
268836.95
 30
0.0
 11
44416.77
 21
265115.32
 31
0.0
  0
LINE
  8
THIRDLINE
 10
44416.77
 20
265115.32
 30
0.0
 11
45501.32
 21
259998.09
 31
0.0
  0
LINE
  8
THIRDLINE
 10
45501.32
 20
259998.09
 30
0.0
 11
49994.46
 21
261703.84
 31
0.0
  0
LINE
  8
THIRDLINE
 10
49994.46
 20
261703.84
 30
0.0
 11
50149.4
 21
257672.08
 31
0.0
  0
LINE
  8
THIRDLINE
 10
49374.72
 20
256896.74
 30
0.0
 11
58670.88
 21
256586.6
 31
0.0
  0
POLYLINE
  8
GARBAGE
 66
     1
 10
0.0
 20
0.0
 30
0.0
 70
     1
  0
VERTEX
  8
GARBAGE
 10
30317.58
 20
247282.55
 30
0.0
  0
VERTEX
  8
GARBAGE
 10
53320.0
 20
236423.62
 30
0.0
  0
VERTEX
  8
GARBAGE
 10
76151.62
 20
247637.21
 30
0.0
  0
VERTEX
  8
GARBAGE
 10
81619.77
 20
272479.25
 30
0.0
  0
VERTEX
  8
GARBAGE
 10
65606.81
 20
292243.18
 30
0.0
  0
VERTEX
  8
GARBAGE
 10
40170.84
 20
292046.35
 30
0.0
  0
VERTEX
  8
GARBAGE
 10
24465.66
 20
272036.99
 30
0.0
  0
SEQEND
  8
GARBAGE
  0
POLYLINE
  8
GARBAGE
 66
     1
 10
0.0
 20
0.0
 30
0.0
 70
     1
  0
VERTEX
  8
GARBAGE
 10
49994.46
 20
239219.03
 30
0.0
  0
VERTEX
  8
GARBAGE
 10
65453.27
 20
243266.6
 30
0.0
  0
VERTEX
  8
GARBAGE
 10
74693.68
 20
256303.94
 30
0.0
  0
VERTEX
  8
GARBAGE
 10
73392.0
 20
272230.75
 30
0.0
  0
VERTEX
  8
GARBAGE
 10
62157.3
 20
283594.68
 30
0.0
  0
VERTEX
  8
GARBAGE
 10
46246.42
 20
285078.44
 30
0.0
  0
VERTEX
  8
GARBAGE
 10
33104.24
 20
275987.75
 30
0.0
  0
VERTEX
  8
GARBAGE
 10
28880.14
 20
260576.24
 30
0.0
  0
VERTEX
  8
GARBAGE
 10
35550.6
 20
246055.14
 30
0.0
  0
SEQEND
  8
GARBAGE
  0
CIRCLE
  8
GARBAGE
 10
78347.76
 20
279846.75
 30
0.0
 40
11801.42
  0
CIRCLE
  8
GARBAGE
 10
49684.59
 20
265890.66
 30
0.0
 40
11971.97
  0
POINT
  8
FIRSTPOINT
 10
48600.04
 20
268836.95
 30
0.0
  0
LINE
  8
FIRSTLINE
 10
46895.74
 20
255346.06
 30
0.0
 11
35120.6
 21
258602.48
 31
0.0
  0
LINE
  8
MIXED
 10
90587.71
 20
272558.57
 30
0.0
 11
85629.76
 21
258602.48
 31
0.0
  0
LINE
  8
MIXED
 10
85629.76
 20
258602.48
 30
0.0
 11
82995.84
 21
260463.29
 31
0.0
  0
LINE
  8
MIXED
 10
82995.84
 20
260463.29
 30
0.0
 11
91362.39
 21
260463.29
 31
0.0
  0
LINE
  8
MIXED
 10
61924.54
 20
274884.58
 30
0.0
 11
81911.29
 21
280622.09
 31
0.0
  0
LINE
  8
MIXED
 10
81911.29
 20
280622.09
 30
0.0
 11
83305.72
 21
273333.91
 31
0.0
  0
POINT
  8
MIXED
 10
63628.84
 20
276900.46
 30
0.0
  0
POINT
  8
MIXED
 10
57896.2
 20
276435.26
 30
0.0
  0
POINT
  8
MIXED
 10
57741.27
 20
280622.09
 30
0.0
  0
POINT
  8
MIXED
 10
67812.11
 20
288530.54
 30
0.0
  0
POINT
  8
MIXED
 10
57896.2
 20
288220.4
 30
0.0
  0
POINT
  8
MIXED
 10
58361.01
 20
291321.75
 30
0.0
  0
ENDSEC
  0
EOF
