#define mtn_width 50
#define mtn_height 50
static char mtn_bits[] = {
   0x00, 0x00, 0x00, 0x00, 0x00, 0x00, 0x00, 0x00, 0x00, 0x00, 0x00, 0x00,
   0x00, 0x00, 0x00, 0x00, 0x00, 0x00, 0x00, 0x00, 0x00, 0x00, 0x00, 0x00,
   0x00, 0x00, 0x00, 0x00, 0x00, 0x00, 0x00, 0x00, 0x00, 0x00, 0x00, 0x00,
   0x00, 0x00, 0x00, 0x00, 0x00, 0x00, 0x00, 0x00, 0x00, 0x30, 0x00, 0x00,
   0x00, 0x00, 0x70, 0x00, 0x78, 0x00, 0x00, 0x00, 0x00, 0xf8, 0x00, 0xfc,
   0x00, 0x01, 0x00, 0x00, 0xfc, 0x01, 0xfc, 0x80, 0x03, 0x00, 0x00, 0xfc,
   0x01, 0xfc, 0x81, 0x03, 0x00, 0x00, 0xfc, 0x01, 0xfe, 0xc1, 0x07, 0x00,
   0x00, 0xf8, 0x00, 0xfe, 0xe1, 0x0f, 0x00, 0x00, 0x70, 0x00, 0xff, 0x73,
   0x1f, 0x00, 0x00, 0x00, 0x00, 0xff, 0x3f, 0x3c, 0x00, 0x00, 0x00, 0x80,
   0xff, 0x05, 0x78, 0x00, 0xc0, 0x00, 0x80, 0xfd, 0x0c, 0x88, 0x00, 0xc0,
   0x01, 0x80, 0x78, 0x08, 0x08, 0x01, 0xe0, 0x01, 0x40, 0x30, 0x08, 0x10,
   0x02, 0xe0, 0x03, 0x40, 0x20, 0x10, 0x20, 0x02, 0xe0, 0x03, 0x20, 0x20,
   0x10, 0x20, 0x00, 0xf0, 0x07, 0x20, 0x20, 0x20, 0x40, 0x00, 0xf0, 0x07,
   0x30, 0x20, 0x20, 0x00, 0x00, 0xf0, 0x09, 0x08, 0x20, 0xc0, 0x00, 0x00,
   0x70, 0x19, 0x0c, 0x60, 0x80, 0x00, 0x00, 0x10, 0x31, 0x04, 0x40, 0x80,
   0x00, 0x00, 0x18, 0x61, 0x04, 0xc0, 0x00, 0x03, 0x00, 0x08, 0xc1, 0x02,
   0x80, 0x00, 0x06, 0x00, 0x0c, 0x01, 0x03, 0x80, 0x00, 0x0c, 0x00, 0x04,
   0x02, 0x03, 0x00, 0x03, 0x08, 0x00, 0x04, 0x06, 0x06, 0x00, 0x02, 0x10,
   0x00, 0x04, 0x04, 0x0c, 0x00, 0x02, 0x10, 0x00, 0x02, 0x04, 0x10, 0x00,
   0x02, 0x10, 0x00, 0x03, 0x0c, 0x00, 0x00, 0x06, 0x20, 0x00, 0x01, 0x00,
   0x20, 0x00, 0x04, 0x60, 0x00, 0x00, 0x10, 0x40, 0x00, 0x00, 0xc0, 0x00,
   0x00, 0x10, 0x00, 0x01, 0x00, 0x80, 0x01, 0x00, 0x00, 0x00, 0x02, 0x00,
   0x00, 0x00, 0x00, 0x20, 0x00, 0x02, 0x00, 0x00, 0x00, 0x00, 0x20, 0x00,
   0x00, 0x00, 0x00, 0x00, 0x00, 0xc0, 0x00, 0x00, 0x00, 0x00, 0x00, 0x00,
   0x00, 0x00, 0x00, 0x00, 0x00, 0x00, 0x00, 0x00, 0x00, 0x00, 0x00, 0x00,
   0x00, 0x00, 0x00, 0x00, 0x00, 0x00, 0x00, 0x00, 0x00, 0x00, 0x00, 0x00,
   0x00, 0x00, 0x00, 0x00, 0x00, 0x00, 0x00, 0x00, 0x00, 0x00, 0x00, 0x00,
   0x00, 0x00, 0x00, 0x00, 0x00, 0x00, 0x00, 0x00, 0x00, 0x00, 0x00, 0x00,
   0x00, 0x00, 0x00, 0x00, 0x00, 0x00, 0x00, 0x00, 0x00, 0x00, 0x00, 0x00,
   0x00, 0x00};
