  0
SECTION
  2
HEADER
  9
$LIMMIN
 10
3.838033
 20
6.782787
  9
$LIMMAX
 10
147.816600
 20
101.004098
  0
ENDSEC
  0
SECTION
  2
TABLES
  0
TABLE
  2
LTYPE
 70
     1
  0
LTYPE
  2
CONTINUOUS
 70
    64
  3
Solid line
 72
    65
 73
     0
 40
0.0
  0
ENDTAB
  0
TABLE
  2
LAYER
 70
     5
  0
LAYER
  2
0
 70
     0
 62
     7
  6
CONTINUOUS
  0
LAYER
  2
AV_A
 70
    64
 62
     1
  6
CONTINUOUS
  0
LAYER
  2
LV_A
 70
    64
 62
     2
  6
CONTINUOUS
  0
LAYER
  2
LC_A
 70
    64
 62
     3
  6
CONTINUOUS
  0
LAYER
  2
AC_A
 70
    64
 62
     4
  6
CONTINUOUS
  0
ENDTAB
  0
ENDSEC
  0
SECTION
  2
ENTITIES
  0
POLYLINE
  8
AV_A
 66
     1
 10
0.0
 20
0.0
 30
0.0
  0
VERTEX
  8
AV_A
 10
11.475410
 20
39.071038
 30
0.000000
  0
VERTEX
  8
AV_A
 10
22.814208
 20
39.207650
 30
0.000000
  0
VERTEX
  8
AV_A
 10
30.327869
 20
46.994536
 30
0.000000
  0
VERTEX
  8
AV_A
 10
44.672131
 20
20.218579
 30
0.000000
  0
VERTEX
  8
AV_A
 10
10.382514
 20
15.437158
 30
0.000000
  0
VERTEX
  8
AV_A
 10
11.475410
 20
39.071038
 30
0.000000
  0
SEQEND
  8
AV_A
  0
POLYLINE
  8
AV_A
 66
     1
 10
0.0
 20
0.0
 30
0.0
  0
VERTEX
  8
AV_A
 10
60.655738
 20
41.120219
 30
0.000000
  0
VERTEX
  8
AV_A
 10
78.005464
 20
42.076503
 30
0.000000
  0
VERTEX
  8
AV_A
 10
85.245902
 20
60.382514
 30
0.000000
  0
VERTEX
  8
AV_A
 10
96.174863
 20
44.535519
 30
0.000000
  0
VERTEX
  8
AV_A
 10
87.431694
 20
11.065574
 30
0.000000
  0
VERTEX
  8
AV_A
 10
62.978142
 20
13.114754
 30
0.000000
  0
VERTEX
  8
AV_A
 10
60.655738
 20
41.120219
 30
0.000000
  0
SEQEND
  8
AV_A
  0
POLYLINE
  8
AV_A
 66
     1
 10
0.0
 20
0.0
 30
0.0
  0
VERTEX
  8
AV_A
 10
13.661202
 20
76.639344
 30
0.000000
  0
VERTEX
  8
AV_A
 10
14.344262
 20
94.945355
 30
0.000000
  0
VERTEX
  8
AV_A
 10
34.289617
 20
94.535519
 30
0.000000
  0
VERTEX
  8
AV_A
 10
36.475410
 20
72.267760
 30
0.000000
  0
VERTEX
  8
AV_A
 10
25.000000
 20
80.601093
 30
0.000000
  0
VERTEX
  8
AV_A
 10
13.661202
 20
76.639344
 30
0.000000
  0
SEQEND
  8
AV_A
  0
POLYLINE
  8
AV_A
 66
     1
 10
0.0
 20
0.0
 30
0.0
  0
VERTEX
  8
AV_A
 10
81.147541
 20
80.464481
 30
0.000000
  0
VERTEX
  8
AV_A
 10
57.377049
 20
80.464481
 30
0.000000
  0
VERTEX
  8
AV_A
 10
48.770492
 20
68.989071
 30
0.000000
  0
VERTEX
  8
AV_A
 10
45.355191
 20
93.989071
 30
0.000000
  0
VERTEX
  8
AV_A
 10
96.448087
 20
96.721311
 30
0.000000
  0
VERTEX
  8
AV_A
 10
88.387978
 20
67.759563
 30
0.000000
  0
VERTEX
  8
AV_A
 10
81.147541
 20
80.464481
 30
0.000000
  0
SEQEND
  8
AV_A
  0
POLYLINE
  8
LV_A
 66
     1
 10
0.0
 20
0.0
 30
0.0
  0
VERTEX
  8
LV_A
 10
40.027322
 20
31.693989
 30
0.000000
  0
VERTEX
  8
LV_A
 10
39.754098
 20
29.508197
 30
0.000000
  0
VERTEX
  8
LV_A
 10
37.978142
 20
29.918033
 30
0.000000
  0
SEQEND
  8
LV_A
  0
POLYLINE
  8
LV_A
 66
     1
 10
0.0
 20
0.0
 30
0.0
  0
VERTEX
  8
LV_A
 10
94.535519
 20
32.513661
 30
0.000000
  0
VERTEX
  8
LV_A
 10
92.759563
 20
31.284153
 30
0.000000
  0
VERTEX
  8
LV_A
 10
91.803279
 20
33.060109
 30
0.000000
  0
SEQEND
  8
LV_A
  0
POLYLINE
  8
LV_A
 66
     1
 10
0.0
 20
0.0
 30
0.0
  0
VERTEX
  8
LV_A
 10
62.158470
 20
96.584699
 30
0.000000
  0
VERTEX
  8
LV_A
 10
63.797814
 20
95.081967
 30
0.000000
  0
VERTEX
  8
LV_A
 10
62.841530
 20
93.442623
 30
0.000000
  0
SEQEND
  8
LV_A
  0
POLYLINE
  8
LV_A
 66
     1
 10
0.0
 20
0.0
 30
0.0
  0
VERTEX
  8
LV_A
 10
29.098361
 20
95.628415
 30
0.000000
  0
VERTEX
  8
LV_A
 10
30.191257
 20
94.672131
 30
0.000000
  0
VERTEX
  8
LV_A
 10
29.234973
 20
93.306011
 30
0.000000
  0
SEQEND
  8
LV_A
  0
POLYLINE
  8
AV_A
 66
     1
 10
0.0
 20
0.0
 30
0.0
  0
VERTEX
  8
AV_A
 10
120.432460
 20
80.649725
 30
0.000000
  0
VERTEX
  8
AV_A
 10
129.526130
 20
90.880104
 30
0.000000
  0
VERTEX
  8
AV_A
 10
141.272120
 20
70.798250
 30
0.000000
  0
VERTEX
  8
AV_A
 10
120.432460
 20
80.649725
 30
0.000000
  0
SEQEND
  8
AV_A
  0
POLYLINE
  8
AV_A
 66
     1
 10
0.0
 20
0.0
 30
0.0
  0
VERTEX
  8
AV_A
 10
116.895029
 20
29.820064
 30
0.000000
  0
VERTEX
  8
AV_A
 10
119.793926
 20
35.295759
 30
0.000000
  0
VERTEX
  8
AV_A
 10
125.591721
 20
39.805155
 30
0.000000
  0
VERTEX
  8
AV_A
 10
133.644213
 20
39.483055
 30
0.000000
  0
SEQEND
  8
AV_A
  0
POLYLINE
  8
AV_A
 66
     1
 10
0.0
 20
0.0
 30
0.0
  0
VERTEX
  8
AV_A
 10
133.644213
 20
39.483055
 30
0.000000
  0
VERTEX
  8
AV_A
 10
139.119908
 20
32.396862
 30
0.000000
  0
VERTEX
  8
AV_A
 10
138.153609
 20
24.988569
 30
0.000000
  0
VERTEX
  8
AV_A
 10
133.000014
 20
17.902375
 30
0.000000
  0
VERTEX
  8
AV_A
 10
122.048624
 20
16.613976
 30
0.000000
  0
VERTEX
  8
AV_A
 10
116.895029
 20
29.820064
 30
0.000000
  0
SEQEND
  8
AV_A
  0
POLYLINE
  8
AV_A
 66
     1
 10
0.0
 20
0.0
 30
0.0
  0
VERTEX
  8
AV_A
 10
133.644213
 20
39.483055
 30
0.000000
  0
VERTEX
  8
AV_A
 10
131.067416
 20
42.704052
 30
0.000000
  0
VERTEX
  8
AV_A
 10
126.558020
 20
43.670351
 30
0.000000
  0
VERTEX
  8
AV_A
 10
118.505527
 20
40.127255
 30
0.000000
  0
VERTEX
  8
AV_A
 10
115.284530
 20
34.329460
 30
0.000000
  0
VERTEX
  8
AV_A
 10
116.895029
 20
29.820064
 30
0.000000
  0
SEQEND
  8
AV_A
  0
POLYLINE
  8
AV_A
 66
     1
 10
0.0
 20
0.0
 30
0.0
  0
VERTEX
  8
AV_A
 10
116.895029
 20
29.820064
 30
0.000000
  0
VERTEX
  8
AV_A
 10
113.029832
 20
32.074762
 30
0.000000
  0
VERTEX
  8
AV_A
 10
114.640331
 20
45.280850
 30
0.000000
  0
VERTEX
  8
AV_A
 10
125.269621
 20
48.179747
 30
0.000000
  0
VERTEX
  8
AV_A
 10
133.000014
 20
46.247149
 30
0.000000
  0
VERTEX
  8
AV_A
 10
133.644213
 20
39.483055
 30
0.000000
  0
SEQEND
  8
AV_A
  0
TEXT
  8
AC_A
 10
22.233329
 20
88.622649
 30
0.000000
 40
0.431936
  1
100
 72
     4
 11
22.233329
 21
88.622649
 31
0.000000
  0
TEXT
  8
AC_A
 10
60.792700
 20
87.207626
 30
0.000000
 40
0.431936
  1
100.04
 72
     4
 11
60.792700
 21
87.207626
 31
0.000000
  0
TEXT
  8
AC_A
 10
127.298770
 20
81.547535
 30
0.000000
 40
0.431936
  1
01_358.gz3
 72
     4
 11
127.298770
 21
81.547535
 31
0.000000
  0
TEXT
  8
AC_A
 10
83.433064
 20
30.960471
 30
0.000000
 40
0.431936
  1
1
 72
     4
 11
83.433064
 21
30.960471
 31
0.000000
  0
TEXT
  8
AC_A
 10
28.600932
 20
40.158119
 30
0.000000
 40
0.431936
  1
1
 72
     4
 11
28.600932
 21
40.158119
 31
0.000000
  0
TEXT
  8
AC_A
 10
132.355815
 20
26.921167
 30
0.000000
 40
0.431936
  1
1
 72
     4
 11
132.355815
 21
26.921167
 31
0.000000
  0
TEXT
  8
AC_A
 10
122.323165
 20
39.860943
 30
0.000000
 40
0.431936
  1
1
 72
     4
 11
122.323165
 21
39.860943
 31
0.000000
  0
TEXT
  8
AC_A
 10
122.457193
 20
44.283869
 30
0.000000
 40
0.431936
  1
1
 72
     4
 11
122.457193
 21
44.283869
 31
0.000000
  0
ENDSEC
  0
EOF
