#define thick1_width 22
#define thick1_height 11
static char thick1_bits[] = {
 0x00,0x00,0xc0,0x00,0x00,0xc0,0x00,0x00,0xc0,0x00,0x00,0xc0,0x00,0x00,0xc0,
 0xf8,0xbe,0xcf,0x00,0x00,0xc0,0x00,0x00,0xc0,0x00,0x00,0xc0,0x00,0x00,0xc0,
 0x00,0x00,0xc0};
