#define thick2_width 22
#define thick2_height 11
static char thick2_bits[] = {
 0x00,0x00,0xc0,0x00,0x00,0xc0,0x00,0x00,0xc0,0x00,0x00,0xc0,0xfc,0xff,0xdf,
 0xfc,0xff,0xdf,0xfc,0xff,0xdf,0x00,0x00,0xc0,0x00,0x00,0xc0,0x00,0x00,0xc0,
 0x00,0x00,0xc0};
