#define noname_width 32
#define noname_height 32
static char noname_bits[] = {
 0x00,0x00,0x00,0x00,0x00,0x00,0x00,0x00,0x00,0x00,0x18,0x00,0x00,0x00,0x66,
 0x00,0x00,0x80,0x81,0x01,0x00,0x60,0x00,0x06,0x00,0x18,0x00,0x18,0x00,0x06,
 0x00,0x60,0x80,0x01,0x00,0x80,0x60,0x00,0x00,0xc0,0x18,0x00,0x00,0xb0,0x06,
 0x00,0x00,0xcc,0x01,0x00,0x00,0x62,0x03,0x00,0x80,0x99,0x0d,0x00,0x60,0xc4,
 0x31,0x00,0x10,0xb3,0xc6,0x00,0x8c,0x48,0x1b,0x03,0x63,0xe6,0x6d,0x8c,0x10,
 0x91,0xb2,0x71,0xcc,0x4c,0xc6,0x06,0x23,0x32,0x1a,0x9b,0x98,0x09,0x64,0x6c,
 0x66,0x06,0x9c,0x31,0x11,0x01,0x64,0xc6,0xcc,0x00,0x98,0x19,0x23,0x00,0x60,
 0xe6,0x18,0x00,0x80,0x19,0x04,0x00,0x00,0x66,0x03,0x00,0x00,0x98,0x00,0x00,
 0x00,0x60,0x00,0x00,0x00,0x00,0x00,0x00};
