#define magnify_zoomout_width 32
#define magnify_zoomout_height 32
static char magnify_zoomout_bits[] = {
   0x00, 0x00, 0x00, 0x00, 0x00, 0x00, 0x00, 0x00, 0x00, 0x00, 0x00, 0x00,
   0x80, 0x1f, 0x00, 0x00, 0xc0, 0x7f, 0x00, 0x00, 0xf0, 0xe0, 0x01, 0x00,
   0x30, 0x80, 0x01, 0x00, 0x18, 0x08, 0x03, 0x00, 0x18, 0x04, 0x03, 0x00,
   0x0c, 0x12, 0x06, 0x00, 0x0c, 0x08, 0x06, 0x00, 0x0c, 0x04, 0x06, 0x00,
   0x0c, 0x00, 0x06, 0x00, 0x0c, 0x00, 0x06, 0x00, 0x18, 0x00, 0x07, 0x00,
   0x18, 0x00, 0x03, 0x00, 0x30, 0x80, 0x03, 0x00, 0xf0, 0xe0, 0x7f, 0x00,
   0xc0, 0xff, 0x8f, 0x00, 0x00, 0x3f, 0x1f, 0x01, 0x00, 0x00, 0x3d, 0x02,
   0x00, 0x00, 0x79, 0x1c, 0x00, 0x00, 0x02, 0x18, 0x00, 0x00, 0x0e, 0x18,
   0x00, 0x00, 0x12, 0x18, 0x00, 0x00, 0x6c, 0x18, 0xfe, 0x01, 0xf0, 0x19,
   0xfe, 0x01, 0x00, 0x1e, 0x00, 0x00, 0x00, 0x10, 0x00, 0x00, 0x00, 0x00,
   0x00, 0x00, 0x00, 0x00, 0x00, 0x00, 0x00, 0x00};
