#define acursor_width 25
#define acursor_height 25
#define acursor_x_hot 5
#define acursor_y_hot 5
static char acursor_bits[] = {
   0x00, 0x00, 0x00, 0x00, 0x20, 0x00, 0x00, 0x00, 0x20, 0x00, 0x00, 0x00,
   0x20, 0x00, 0x00, 0x00, 0x00, 0x00, 0x00, 0x00, 0x8e, 0x03, 0x00, 0x00,
   0x00, 0x00, 0x00, 0x00, 0x20, 0x00, 0x00, 0x00, 0x20, 0x03, 0x00, 0x00,
   0x20, 0x0f, 0x00, 0x00, 0x00, 0x3e, 0x00, 0x00, 0x00, 0xfe, 0x00, 0x00,
   0x00, 0xfc, 0x03, 0x00, 0x00, 0xfc, 0x01, 0x00, 0x00, 0xf8, 0x00, 0x00,
   0x00, 0xf8, 0x01, 0x00, 0x00, 0xb0, 0x03, 0x00, 0x00, 0x10, 0x07, 0x00,
   0x00, 0x00, 0x0e, 0x00, 0x00, 0x00, 0x1c, 0x00, 0x00, 0x00, 0x38, 0x00,
   0x00, 0x00, 0x70, 0x00, 0x00, 0x00, 0x20, 0x00, 0x00, 0x00, 0x00, 0x00,
   0x00, 0x00, 0x00, 0x00};
