#define bcursor_width 25
#define bcursor_height 25
#define bcursor_x_hot 5
#define bcursor_y_hot 5
static char bcursor_bits[] = {
   0x00, 0x00, 0x00, 0x00, 0x20, 0x00, 0x00, 0x00, 0x20, 0x00, 0x00, 0x00,
   0x20, 0x00, 0x00, 0x00, 0x00, 0x00, 0x00, 0x00, 0x8e, 0x03, 0x00, 0x00,
   0x00, 0x10, 0x00, 0x00, 0x20, 0x28, 0x00, 0x00, 0x20, 0x54, 0x00, 0x00,
   0x20, 0xaa, 0x00, 0x00, 0x00, 0x55, 0x01, 0x00, 0x80, 0xaa, 0x06, 0x00,
   0x40, 0x55, 0x07, 0x00, 0x80, 0xaa, 0x03, 0x00, 0x00, 0xd5, 0x03, 0x00,
   0x00, 0xea, 0x03, 0x00, 0x00, 0xf4, 0x03, 0x00, 0x00, 0xf8, 0x07, 0x00,
   0x00, 0x18, 0x1e, 0x00, 0x00, 0x00, 0x3c, 0x00, 0x00, 0x00, 0x7c, 0x00,
   0x00, 0x00, 0xf8, 0x00, 0x00, 0x00, 0xf0, 0x00, 0x00, 0x00, 0x60, 0x00,
   0x00, 0x00, 0x00, 0x00};
