#define icon_width 50
#define icon_height 50
static char icon_bits[] = {
   0x00, 0x00, 0x00, 0x00, 0x00, 0x00, 0x00, 0x22, 0xe7, 0x21, 0xcc, 0x00,
   0xe0, 0x00, 0x94, 0x20, 0x52, 0x22, 0x00, 0xf0, 0x00, 0x88, 0xee, 0x71,
   0xee, 0x00, 0xf8, 0x00, 0x94, 0x28, 0x89, 0x88, 0x00, 0xf8, 0x00, 0x22,
   0x27, 0x8a, 0x66, 0x00, 0x78, 0x00, 0x00, 0x00, 0x00, 0x00, 0x00, 0x78,
   0x00, 0x00, 0x00, 0x00, 0x00, 0x00, 0x1c, 0x00, 0x1e, 0xc2, 0xee, 0x1e,
   0x00, 0x0c, 0x00, 0x22, 0x25, 0x24, 0x22, 0x00, 0x06, 0x00, 0x1e, 0xe7,
   0xe4, 0x1e, 0x00, 0x06, 0x00, 0x92, 0x88, 0x24, 0x12, 0x00, 0x03, 0x00,
   0xa2, 0x68, 0xe4, 0x22, 0xfc, 0x03, 0x00, 0x00, 0x00, 0x00, 0x00, 0xfc,
   0x03, 0x00, 0x00, 0x00, 0x00, 0x00, 0xf2, 0x07, 0x00, 0x6e, 0xee, 0xe4,
   0x01, 0xca, 0x07, 0x00, 0xa2, 0x44, 0x2a, 0x02, 0x29, 0x0f, 0x00, 0xae,
   0x44, 0xea, 0x01, 0xa5, 0x0c, 0x00, 0xa2, 0x44, 0x2a, 0x81, 0x94, 0x02,
   0x00, 0x6e, 0x4e, 0x24, 0x82, 0x52, 0x02, 0x00, 0x00, 0x00, 0x00, 0x40,
   0x4a, 0x01, 0x00, 0x00, 0x00, 0x00, 0x40, 0x29, 0x01, 0x00, 0x00, 0x00,
   0x00, 0x00, 0xa5, 0x00, 0x00, 0x00, 0x00, 0x00, 0x00, 0x94, 0x00, 0x00,
   0x00, 0x00, 0x00, 0x00, 0x50, 0x00, 0x00, 0x00, 0x00, 0x00, 0x00, 0x40,
   0x00, 0x00, 0x00, 0x00, 0x00, 0x00, 0x00, 0x00, 0x00, 0x00, 0xff, 0xff,
   0xff, 0xff, 0x1f, 0x00, 0x00, 0xff, 0x87, 0x10, 0xc2, 0x12, 0x00, 0x80,
   0xff, 0x43, 0x08, 0x61, 0x0d, 0x00, 0x80, 0xff, 0x43, 0x08, 0xa1, 0x0a,
   0x00, 0x80, 0xff, 0x43, 0x08, 0x61, 0x0d, 0x00, 0xc0, 0xff, 0xff, 0xff,
   0xff, 0x07, 0x00, 0xc0, 0x0f, 0x21, 0xac, 0x55, 0x05, 0x00, 0xc0, 0x0f,
   0x21, 0xd4, 0xba, 0x04, 0x00, 0xc0, 0x0f, 0x21, 0xac, 0x55, 0x03, 0x00,
   0xe0, 0x87, 0x10, 0xd6, 0xaa, 0x02, 0x00, 0xe0, 0xff, 0xff, 0xff, 0xff,
   0x03, 0x00, 0x20, 0xfc, 0xb0, 0x6a, 0x0d, 0x01, 0x00, 0x10, 0x7e, 0x58,
   0xb5, 0x06, 0x01, 0x00, 0x10, 0x7e, 0xa8, 0x6b, 0x85, 0x00, 0x00, 0x10,
   0x7e, 0x58, 0xb5, 0x86, 0x00, 0x00, 0xf8, 0xff, 0xff, 0xff, 0xff, 0x00,
   0x00, 0x08, 0x21, 0xd4, 0x10, 0x42, 0x00, 0x00, 0x08, 0x21, 0xac, 0x10,
   0x42, 0x00, 0x00, 0x08, 0x21, 0xd4, 0x10, 0x42, 0x00, 0x00, 0x84, 0x10,
   0x6a, 0x08, 0x21, 0x00, 0x00, 0xfc, 0xff, 0xff, 0xff, 0x3f, 0x00, 0x00,
   0x00, 0x00, 0x00, 0x00, 0x00, 0x00, 0x00, 0x00, 0x00, 0x00, 0x00, 0x00,
   0x00, 0x00};
