#define index_width 30
#define index_height 30
static char index_bits[] = {
   0xff, 0xff, 0xff, 0x3f, 0x01, 0x00, 0x00, 0x20, 0x01, 0x00, 0x00, 0x20,
   0x01, 0x00, 0x00, 0x20, 0x01, 0x00, 0x00, 0x20, 0x01, 0xc0, 0xff, 0x21,
   0x01, 0x40, 0x00, 0x21, 0x01, 0x40, 0x00, 0x21, 0x01, 0x40, 0x00, 0x21,
   0x01, 0x40, 0x00, 0x21, 0x01, 0x40, 0x00, 0x21, 0x01, 0x40, 0x00, 0x21,
   0x01, 0x40, 0x00, 0x21, 0x01, 0xc0, 0xff, 0x21, 0x01, 0x00, 0x00, 0x20,
   0x01, 0x00, 0x00, 0x20, 0xff, 0xff, 0xff, 0x3f, 0x00, 0x00, 0x00, 0x00,
   0x00, 0x00, 0x00, 0x00, 0x3e, 0x80, 0x01, 0x00, 0x08, 0x80, 0x00, 0x00,
   0x08, 0x80, 0x00, 0x00, 0x08, 0x80, 0x00, 0x00, 0x08, 0x80, 0x00, 0x00,
   0x48, 0xe3, 0x98, 0x08, 0x88, 0x94, 0x24, 0x05, 0x88, 0x94, 0x3c, 0x02,
   0x88, 0x94, 0x04, 0x02, 0x88, 0x94, 0x24, 0x05, 0xbe, 0x64, 0x99, 0x08};
