#define lock_width 30
#define lock_height 30
static char lock_bits[] = {
   0x00, 0x00, 0x00, 0x00, 0x00, 0x00, 0x00, 0x00, 0x00, 0x00, 0x00, 0x00,
   0x00, 0xe0, 0x01, 0x00, 0x00, 0x18, 0x06, 0x00, 0x00, 0x04, 0x08, 0x00,
   0x00, 0xe2, 0x11, 0x00, 0x00, 0x11, 0x22, 0x00, 0x00, 0x09, 0x24, 0x00,
   0x80, 0x08, 0x44, 0x00, 0x80, 0x04, 0x48, 0x00, 0x80, 0x04, 0x48, 0x00,
   0x80, 0x04, 0x48, 0x00, 0x80, 0x04, 0x48, 0x00, 0x80, 0x04, 0x48, 0x00,
   0x80, 0x04, 0x48, 0x00, 0xe0, 0xff, 0xff, 0x01, 0x20, 0x00, 0x00, 0x01,
   0x60, 0xe5, 0xa9, 0x01, 0x20, 0x10, 0x02, 0x01, 0x60, 0xc9, 0xa4, 0x01,
   0x20, 0x28, 0x05, 0x01, 0x60, 0xc9, 0xa4, 0x01, 0x20, 0x10, 0x02, 0x01,
   0x60, 0x25, 0xa9, 0x01, 0x20, 0x20, 0x01, 0x01, 0x60, 0x25, 0xa9, 0x01,
   0x20, 0xc0, 0x00, 0x01, 0x20, 0x00, 0x00, 0x01, 0xe0, 0xff, 0xff, 0x01};
