#define poly_width 30
#define poly_height 30
static char poly_bits[] = {
   0x10, 0x00, 0x00, 0x00, 0x30, 0x00, 0x10, 0x00, 0x48, 0x00, 0x2c, 0x00,
   0x88, 0x01, 0x23, 0x00, 0x04, 0xc2, 0x40, 0x00, 0x04, 0x34, 0x80, 0x00,
   0x02, 0x08, 0x80, 0x00, 0x02, 0x00, 0x00, 0x01, 0x01, 0x00, 0x00, 0x02,
   0x01, 0x00, 0x00, 0x02, 0x01, 0x00, 0x00, 0x04, 0x02, 0x00, 0x00, 0x02,
   0x02, 0x00, 0x80, 0x01, 0x04, 0x00, 0x40, 0x00, 0x04, 0x80, 0x3f, 0x00,
   0x08, 0x40, 0x20, 0x00, 0x08, 0x20, 0x60, 0x00, 0x08, 0x10, 0xe0, 0x00,
   0x10, 0x08, 0xe0, 0x01, 0x10, 0x04, 0xe0, 0x03, 0x20, 0x02, 0xe0, 0x07,
   0x20, 0x01, 0xe0, 0x0f, 0xa0, 0x00, 0xe0, 0x01, 0x40, 0x00, 0x60, 0x01,
   0x40, 0x00, 0x20, 0x03, 0x00, 0x00, 0x00, 0x02, 0x00, 0x00, 0x00, 0x06,
   0x00, 0x00, 0x00, 0x04, 0x00, 0x00, 0x00, 0x04, 0x00, 0x00, 0x00, 0x00};
