#define rband_width 30
#define rband_height 30
static char rband_bits[] = {
   0xff, 0xff, 0x3f, 0x00, 0x01, 0x80, 0x20, 0x00, 0x01, 0x00, 0x24, 0x00,
   0x01, 0x80, 0x20, 0x00, 0x01, 0x00, 0x24, 0x00, 0x01, 0x80, 0x20, 0x00,
   0x01, 0x00, 0x24, 0x00, 0x01, 0x80, 0x20, 0x00, 0x01, 0x00, 0x24, 0x00,
   0xab, 0xaa, 0x20, 0x00, 0x01, 0x00, 0x24, 0x00, 0x01, 0x00, 0x20, 0x00,
   0x55, 0x55, 0x25, 0x00, 0x01, 0x00, 0x20, 0x00, 0x01, 0x00, 0x20, 0x00,
   0xff, 0xff, 0x3f, 0x00, 0x00, 0x00, 0x60, 0x00, 0x00, 0x00, 0xc0, 0x00,
   0x00, 0x00, 0xc0, 0x01, 0x00, 0x00, 0xc0, 0x03, 0x00, 0x00, 0xc0, 0x07,
   0x00, 0x00, 0xc0, 0x0f, 0x00, 0x00, 0xc0, 0x03, 0x00, 0x00, 0x40, 0x02,
   0x00, 0x00, 0x00, 0x02, 0x00, 0x00, 0x00, 0x04, 0x00, 0x00, 0x00, 0x04,
   0x00, 0x00, 0x00, 0x08, 0x00, 0x00, 0x00, 0x08, 0x00, 0x00, 0x00, 0x00};
