#define zcursor_width 25
#define zcursor_height 25
#define zcursor_x_hot 8
#define zcursor_y_hot 8
static char zcursor_bits[] = {
   0x00, 0x00, 0x00, 0x00, 0xc0, 0x07, 0x00, 0x00, 0x30, 0x18, 0x00, 0x00,
   0x08, 0x20, 0x00, 0x00, 0x04, 0x40, 0x00, 0x00, 0x04, 0x40, 0x00, 0x00,
   0x02, 0x80, 0x00, 0x00, 0x02, 0x80, 0x00, 0x00, 0x02, 0x80, 0x00, 0x00,
   0x02, 0x80, 0x00, 0x00, 0x02, 0x80, 0x00, 0x00, 0x04, 0x40, 0x00, 0x00,
   0x04, 0x40, 0x00, 0x00, 0x08, 0x20, 0x00, 0x00, 0x30, 0x58, 0x00, 0x00,
   0xc0, 0x87, 0x02, 0x00, 0x00, 0x00, 0x05, 0x00, 0x00, 0x80, 0x0a, 0x00,
   0x00, 0x00, 0x15, 0x00, 0x00, 0x00, 0x2a, 0x00, 0x00, 0x00, 0x54, 0x00,
   0x00, 0x00, 0xa8, 0x00, 0x00, 0x00, 0x50, 0x00, 0x00, 0x00, 0x20, 0x00,
   0x00, 0x00, 0x00, 0x00};
