#define zoom_width 30
#define zoom_height 30
static char zoom_bits[] = {
   0x00, 0x3e, 0x00, 0x00, 0x80, 0xc1, 0x00, 0x00, 0x40, 0x00, 0x01, 0x00,
   0x40, 0x00, 0x01, 0x00, 0x20, 0x00, 0x02, 0x00, 0x20, 0x00, 0x02, 0x00,
   0x20, 0x00, 0x02, 0x00, 0x20, 0x00, 0x02, 0x00, 0x20, 0x00, 0x02, 0x00,
   0x40, 0x00, 0x01, 0x00, 0x40, 0x80, 0x01, 0x00, 0x80, 0xc1, 0x03, 0x00,
   0x00, 0x3e, 0x0f, 0x00, 0x00, 0x00, 0x16, 0x00, 0x00, 0x00, 0x2a, 0x00,
   0x00, 0x00, 0x54, 0x00, 0x00, 0x00, 0xa8, 0x00, 0x00, 0x00, 0x50, 0x01,
   0x00, 0x00, 0xa0, 0x01, 0xf0, 0x01, 0xc0, 0x00, 0x10, 0x01, 0x00, 0x00,
   0x80, 0x00, 0x00, 0x00, 0x80, 0x00, 0x00, 0x00, 0x40, 0x00, 0x00, 0x00,
   0x40, 0x18, 0x53, 0x01, 0x40, 0xa4, 0xa4, 0x02, 0x20, 0xa4, 0xa4, 0x02,
   0x20, 0xa4, 0xa4, 0x02, 0x10, 0xa5, 0xa4, 0x02, 0xf0, 0x19, 0xa3, 0x02};
