#define raster_bm_width 36
#define raster_bm_height 24
static unsigned char raster_bm_bits[] = {
   0xf8, 0xff, 0x03, 0x00, 0x00, 0x04, 0x00, 0x04, 0x00, 0x00, 0x04, 0x00,
   0x04, 0x00, 0x00, 0x04, 0x00, 0x04, 0x00, 0x00, 0x04, 0x00, 0x04, 0x00,
   0x00, 0x04, 0x00, 0x04, 0x00, 0x00, 0x07, 0x00, 0xfc, 0xff, 0x0f, 0x01,
   0x00, 0x00, 0x00, 0x08, 0x01, 0x00, 0x00, 0x00, 0x08, 0x01, 0x00, 0x00,
   0x00, 0x08, 0x01, 0x00, 0x10, 0x00, 0x08, 0x01, 0x00, 0x10, 0x00, 0x08,
   0x01, 0x00, 0x38, 0x00, 0x08, 0x35, 0x86, 0x11, 0xa6, 0x09, 0x49, 0x49,
   0x12, 0x49, 0x0a, 0x09, 0x48, 0x10, 0x49, 0x08, 0x09, 0x8e, 0x11, 0x47,
   0x08, 0x09, 0x09, 0x12, 0x41, 0x08, 0x09, 0x49, 0x52, 0x49, 0x08, 0x09,
   0x96, 0x21, 0x46, 0x08, 0x01, 0x00, 0x00, 0x00, 0x08, 0x01, 0x00, 0x00,
   0x00, 0x08, 0x01, 0x00, 0x00, 0x00, 0x08, 0xff, 0xff, 0xff, 0xff, 0x0f};
