  0
SECTION
  2
HEADER
  9
$ACADVER
  1
R11
  9
$INSBASE
 10
0.0
 20
0.0
 30
0.0
  9
$EXTMIN
 10
435955.6150596
 20
4631802.5304768
  9
$EXTMAX
 10
443072.7483219
 20
4626783.2145165
  9
$LIMMIN
 10
-10.0
 20
-10.0
  9
$LIMMAX
 10
100.0
 20
100.0
  9
$SNAPMODE
 70
     0
  9
$GRIDMODE
 70
     0
  9
$ORTHOMODE
 70
     0
  9
$REGENMODE
 70
     0
  9
$FILLMODE
 70
     0
  9
$QTEXTMODE
 70
     0
  9
$DRAGMODE
 70
     0
  9
$LTSCALE
 40
1.0
  9
$OSMODE
 70
     0
  9
$ATTMODE
 70
     1
  9
$TRACEWID
 40
0.0
  9
$CLAYER
  7
0
  9
$DIMSCALE
 40
1.0
  9
$LUNITS
 70
     2
  9
$LUPREC
 70
     7
  9
$AXISMODE
 70
     0
  9
$AUNITS
 70
     0
  9
$AUPREC
 70
     0
  9
$MENU
  1
ACAD
  9
$ELEVATION
 40
0.0
  9
$THICKNESS
 40
0.0
  9
$LIMCHECK
 70
     0
  9
$BLIPMODE
 70
     1
  9
$CHAMFERA
 40
0.0
  9
$CHAMFERB
 40
0.0
  0
ENDSEC
  0
SECTION
  2
TABLES
  0
TABLE
  2
LTYPE
 70
     1
  0
LTYPE
  2
CONTINUOUS
 70
    64
  3
Solid line
 72
    65
 73
     0
 40
0.0
  0
ENDTAB
  0
TABLE
  2
LAYER
 70
     2
  0
LAYER
  2
0
 70
     0
 62
     7
  6
CONTINUOUS
  0
LAYER
  2
101
 70
    64
 62
     1
  6
CONTINUOUS
  0
ENDTAB
  0
ENDSEC
  0
SECTION
  2
ENTITIES
  0
POLYLINE
  8
101
 66
     1
 10
0.0
 20
0.0
 30
590
  0
VERTEX
  8
101
 10
95.9611601
 20
4353.0805917
 30
590.0000000
  0
VERTEX
  8
101
 10
112.6802591
 20
4362.5790682
 30
590.0000000
  0
VERTEX
  8
101
 10
117.9041702
 20
4367.8646107
 30
590.0000000
  0
VERTEX
  8
101
 10
121.0388859
 20
4369.9766134
 30
590.0000000
  0
VERTEX
  8
101
 10
125.2172767
 20
4376.3236931
 30
590.0000000
  0
VERTEX
  8
101
 10
130.4419259
 20
4379.4905900
 30
590.0000000
  0
VERTEX
  8
101
 10
131.4863391
 20
4381.6070214
 30
590.0000000
  0
VERTEX
  8
101
 10
142.9789435
 20
4393.2352150
 30
590.0000000
  0
VERTEX
  8
101
 10
151.3360941
 20
4404.8700516
 30
590.0000000
  0
SEQEND
  8
101
  0
POLYLINE
  8
191
 66
     1
 10
0.0
 20
0.0
 30
580
  0
VERTEX
  8
101
 10
96.0187320
 20
4187.8262324
 30
580.0000000
  0
VERTEX
  8
101
 10
101.2422741
 20
4194.1710978
 30
580.0000000
  0
VERTEX
  8
101
 10
111.6912035
 20
4201.5642145
 30
580.0000000
  0
VERTEX
  8
101
 10
123.1838079
 20
4213.1924081
 30
580.0000000
  0
VERTEX
  8
101
 10
125.2730033
 20
4216.3659479
 30
580.0000000
  0
VERTEX
  8
101
 10
128.4077190
 20
4218.4779507
 30
580.0000000
  0
VERTEX
  8
101
 10
132.5861098
 20
4224.8250303
 30
580.0000000
  0
VERTEX
  8
101
 10
135.7208255
 20
4226.9370331
 30
580.0000000
  0
VERTEX
  8
101
 10
144.0779762
 20
4238.5718696
 30
580.0000000
  0
VERTEX
  8
101
 10
145.1209131
 20
4244.9255922
 30
580.0000000
  0
VERTEX
  8
101
 10
146.1660644
 20
4244.9233779
 30
580.0000000
  0
VERTEX
  8
101
 10
147.2104776
 20
4247.0398092
 30
580.0000000
  0
VERTEX
  8
101
 10
149.3004111
 20
4248.0947034
 30
580.0000000
  0
VERTEX
  8
101
 10
151.3896065
 20
4251.2682433
 30
580.0000000
  0
VERTEX
  8
101
 10
157.6575617
 20
4259.7295400
 30
580.0000000
  0
VERTEX
  8
101
 10
157.6568236
 20
4261.8481856
 30
580.0000000
  0
VERTEX
  8
101
 10
166.0154504
 20
4269.2457309
 30
580.0000000
  0
VERTEX
  8
101
 10
179.5954050
 20
4289.3440784
 30
580.0000000
  0
VERTEX
  8
101
 10
180.6394491
 20
4292.5198326
 30
580.0000000
  0
VERTEX
  8
101
 10
185.8633603
 20
4297.8053751
 30
580.0000000
  0
VERTEX
  8
101
 10
186.9077734
 20
4299.9218065
 30
580.0000000
  0
VERTEX
  8
101
 10
191.0872714
 20
4303.0909177
 30
580.0000000
  0
VERTEX
  8
101
 10
195.2667693
 20
4306.2600289
 30
580.0000000
  0
VERTEX
  8
101
 10
197.3559647
 20
4309.4335688
 30
580.0000000
  0
VERTEX
  8
101
 10
200.4906804
 20
4311.5455715
 30
580.0000000
  0
VERTEX
  8
101
 10
217.2053507
 20
4333.7559218
 30
580.0000000
  0
VERTEX
  8
101
 10
222.4281547
 20
4342.2194328
 30
580.0000000
  0
VERTEX
  8
101
 10
236.0095855
 20
4358.0804891
 30
580.0000000
  0
VERTEX
  8
101
 10
237.0539987
 20
4360.1969204
 30
580.0000000
  0
VERTEX
  8
101
 10
247.5029280
 20
4367.5900371
 30
580.0000000
  0
VERTEX
  8
101
 10
256.9078133
 20
4371.8073996
 30
580.0000000
  0
VERTEX
  8
101
 10
258.9981158
 20
4371.8029710
 30
580.0000000
  0
VERTEX
  8
101
 10
274.6735397
 20
4377.0663705
 30
580.0000000
  0
VERTEX
  8
101
 10
294.5306758
 20
4379.1429444
 30
580.0000000
  0
VERTEX
  8
101
 10
310.2064687
 20
4383.3470211
 30
580.0000000
  0
VERTEX
  8
101
 10
322.7453315
 20
4391.7950320
 30
580.0000000
  0
VERTEX
  8
101
 10
329.0140249
 20
4398.1376831
 30
580.0000000
  0
VERTEX
  8
101
 10
334.2364598
 20
4407.6605169
 30
580.0000000
  0
SEQEND
  8
101
  0
POLYLINE
  8
101
 66
     1
 10
0.0
 20
0.0
 30
500
  0
VERTEX
  8
101
 10
919.5189584
 20
4412.7764438
 30
500.0000000
  0
VERTEX
  8
101
 10
917.4293940
 20
4410.6622268
 30
500.0000000
  0
VERTEX
  8
101
 10
915.3387224
 20
4411.7259782
 30
500.0000000
  0
VERTEX
  8
101
 10
912.2054828
 20
4405.3766842
 30
500.0000000
  0
VERTEX
  8
101
 10
909.0726124
 20
4397.9680674
 30
500.0000000
  0
VERTEX
  8
101
 10
911.1710340
 20
4374.6585368
 30
500.0000000
  0
VERTEX
  8
101
 10
914.3087022
 20
4368.2959570
 30
500.0000000
  0
VERTEX
  8
101
 10
914.3101784
 20
4364.0586658
 30
500.0000000
  0
VERTEX
  8
101
 10
924.7735007
 20
4330.1381926
 30
500.0000000
  0
VERTEX
  8
101
 10
925.8216044
 20
4321.6613958
 30
500.0000000
  0
VERTEX
  8
101
 10
927.9148593
 20
4313.1823847
 30
500.0000000
  0
VERTEX
  8
101
 10
928.9600106
 20
4313.1801704
 30
500.0000000
  0
VERTEX
  8
101
 10
930.0062690
 20
4309.9999876
 30
500.0000000
  0
VERTEX
  8
101
 10
934.1938861
 20
4289.8639969
 30
500.0000000
  0
VERTEX
  8
101
 10
931.0632299
 20
4276.0994432
 30
500.0000000
  0
VERTEX
  8
101
 10
925.8400569
 20
4268.6952550
 30
500.0000000
  0
VERTEX
  8
101
 10
918.5247361
 20
4266.5921095
 30
500.0000000
  0
VERTEX
  8
101
 10
918.5251052
 20
4265.5327867
 30
500.0000000
  0
VERTEX
  8
101
 10
917.4799539
 20
4265.5350010
 30
500.0000000
  0
VERTEX
  8
101
 10
917.4803229
 20
4264.4756782
 30
500.0000000
  0
VERTEX
  8
101
 10
916.4351717
 20
4264.4778925
 30
500.0000000
  0
VERTEX
  8
101
 10
914.3456072
 20
4262.3636755
 30
500.0000000
  0
VERTEX
  8
101
 10
913.3004559
 20
4262.3658898
 30
500.0000000
  0
VERTEX
  8
101
 10
905.9858732
 20
4258.1440986
 30
500.0000000
  0
VERTEX
  8
101
 10
901.8052681
 20
4258.1529558
 30
500.0000000
  0
VERTEX
  8
101
 10
901.8056372
 20
4257.0936330
 30
500.0000000
  0
VERTEX
  8
101
 10
899.7153347
 20
4257.0980616
 30
500.0000000
  0
VERTEX
  8
101
 10
896.5806189
 20
4254.9860589
 30
500.0000000
  0
VERTEX
  8
101
 10
896.5809880
 20
4253.9267361
 30
500.0000000
  0
VERTEX
  8
101
 10
892.4007519
 20
4252.8762705
 30
500.0000000
  0
VERTEX
  8
101
 10
880.9059332
 20
4247.6040138
 30
500.0000000
  0
VERTEX
  8
101
 10
879.8607819
 20
4247.6062281
 30
500.0000000
  0
VERTEX
  8
101
 10
878.8159997
 20
4246.5491195
 30
500.0000000
  0
VERTEX
  8
101
 10
878.8163687
 20
4245.4897967
 30
500.0000000
  0
VERTEX
  8
101
 10
873.5909814
 20
4244.4415454
 30
500.0000000
  0
VERTEX
  8
101
 10
866.2749225
 20
4244.4570456
 30
500.0000000
  0
VERTEX
  8
101
 10
864.1842509
 20
4245.5207970
 30
500.0000000
  0
VERTEX
  8
101
 10
861.0491662
 20
4244.4681171
 30
500.0000000
  0
VERTEX
  8
101
 10
854.7775204
 20
4246.6000485
 30
500.0000000
  0
VERTEX
  8
101
 10
850.5958082
 20
4249.7868742
 30
500.0000000
  0
VERTEX
  8
101
 10
845.3696828
 20
4250.8572685
 30
500.0000000
  0
VERTEX
  8
101
 10
842.2342289
 20
4250.8639114
 30
500.0000000
  0
VERTEX
  8
101
 10
841.1887086
 20
4251.9254486
 30
500.0000000
  0
VERTEX
  8
101
 10
835.9622141
 20
4254.0551657
 30
500.0000000
  0
VERTEX
  8
101
 10
831.7801329
 20
4258.3013142
 30
500.0000000
  0
VERTEX
  8
101
 10
829.6894613
 20
4259.3650656
 30
500.0000000
  0
VERTEX
  8
101
 10
827.5991587
 20
4259.3694942
 30
500.0000000
  0
VERTEX
  8
101
 10
826.5532693
 20
4261.4903541
 30
500.0000000
  0
VERTEX
  8
101
 10
825.5084871
 20
4260.4332456
 30
500.0000000
  0
VERTEX
  8
101
 10
818.1920591
 20
4261.5080686
 30
500.0000000
  0
VERTEX
  8
101
 10
818.1927972
 20
4259.3894229
 30
500.0000000
  0
VERTEX
  8
101
 10
815.0554982
 20
4264.6926799
 30
500.0000000
  0
VERTEX
  8
101
 10
811.9196753
 20
4265.7586457
 30
500.0000000
  0
VERTEX
  8
101
 10
797.2871884
 20
4266.8489687
 30
500.0000000
  0
VERTEX
  8
101
 10
784.7453732
 20
4266.8755404
 30
500.0000000
  0
VERTEX
  8
101
 10
774.2953366
 20
4262.6603921
 30
500.0000000
  0
VERTEX
  8
101
 10
763.8456691
 20
4257.3859211
 30
500.0000000
  0
VERTEX
  8
101
 10
764.8908204
 20
4257.3837068
 30
500.0000000
  0
VERTEX
  8
101
 10
758.6228652
 20
4248.9224101
 30
500.0000000
  0
VERTEX
  8
101
 10
759.6680165
 20
4248.9201958
 30
500.0000000
  0
VERTEX
  8
101
 10
758.6232342
 20
4247.8630873
 30
500.0000000
  0
VERTEX
  8
101
 10
757.5780830
 20
4247.8653016
 30
500.0000000
  0
VERTEX
  8
101
 10
757.5788211
 20
4245.7466559
 30
500.0000000
  0
VERTEX
  8
101
 10
754.4437363
 20
4244.6939760
 30
500.0000000
  0
VERTEX
  8
101
 10
752.3545409
 20
4241.5204362
 30
500.0000000
  0
VERTEX
  8
101
 10
752.3549100
 20
4240.4611134
 30
500.0000000
  0
VERTEX
  8
101
 10
753.4000612
 20
4240.4588991
 30
500.0000000
  0
VERTEX
  8
101
 10
754.4481649
 20
4231.9821022
 30
500.0000000
  0
VERTEX
  8
101
 10
753.4030136
 20
4231.9843166
 30
500.0000000
  0
VERTEX
  8
101
 10
752.3582314
 20
4230.9272080
 30
500.0000000
  0
VERTEX
  8
101
 10
754.4540697
 20
4215.0329372
 30
500.0000000
  0
VERTEX
  8
101
 10
755.4992210
 20
4215.0307229
 30
500.0000000
  0
VERTEX
  8
101
 10
755.4999591
 20
4212.9120773
 30
500.0000000
  0
VERTEX
  8
101
 10
756.5458485
 20
4210.7912173
 30
500.0000000
  0
VERTEX
  8
101
 10
757.5924759
 20
4206.5517118
 30
500.0000000
  0
VERTEX
  8
101
 10
758.6379963
 20
4205.4901746
 30
500.0000000
  0
VERTEX
  8
101
 10
759.6846237
 20
4201.2506691
 30
500.0000000
  0
VERTEX
  8
101
 10
760.7297750
 20
4201.2484548
 30
500.0000000
  0
VERTEX
  8
101
 10
761.7760334
 20
4198.0682720
 30
500.0000000
  0
VERTEX
  8
101
 10
762.8259824
 20
4184.2948611
 30
500.0000000
  0
VERTEX
  8
101
 10
753.4207281
 20
4181.1368214
 30
500.0000000
  0
VERTEX
  8
101
 10
744.0125214
 20
4186.4533642
 30
500.0000000
  0
VERTEX
  8
101
 10
718.9259384
 20
4194.9810900
 30
500.0000000
  0
VERTEX
  8
101
 10
709.5192079
 20
4196.0603416
 30
500.0000000
  0
VERTEX
  8
101
 10
700.1143226
 20
4191.8429790
 30
500.0000000
  0
VERTEX
  8
101
 10
695.9363009
 20
4184.4365765
 30
500.0000000
  0
VERTEX
  8
101
 10
695.9429438
 20
4165.3687659
 30
500.0000000
  0
VERTEX
  8
101
 10
698.0354606
 20
4159.0084004
 30
500.0000000
  0
VERTEX
  8
101
 10
698.0391512
 20
4148.4151722
 30
500.0000000
  0
VERTEX
  8
101
 10
690.7267827
 20
4137.8374442
 30
500.0000000
  0
VERTEX
  8
101
 10
683.4114619
 20
4135.7342987
 30
500.0000000
  0
VERTEX
  8
101
 10
677.1409234
 20
4134.6882617
 30
500.0000000
  0
VERTEX
  8
101
 10
675.0517280
 20
4131.5147218
 30
500.0000000
  0
VERTEX
  8
101
 10
668.7826656
 20
4126.2313936
 30
500.0000000
  0
VERTEX
  8
101
 10
664.6031676
 20
4123.0622823
 30
500.0000000
  0
VERTEX
  8
101
 10
661.4680829
 20
4122.0096024
 30
500.0000000
  0
VERTEX
  8
101
 10
658.3337362
 20
4118.8382769
 30
500.0000000
  0
VERTEX
  8
101
 10
653.1090870
 20
4115.6713800
 30
500.0000000
  0
VERTEX
  8
101
 10
653.1124084
 20
4106.1374746
 30
500.0000000
  0
VERTEX
  8
101
 10
652.0713167
 20
4094.4871379
 30
500.0000000
  0
VERTEX
  8
101
 10
647.8944021
 20
4083.9027670
 30
500.0000000
  0
VERTEX
  8
101
 10
648.9402915
 20
4081.7819071
 30
500.0000000
  0
VERTEX
  8
101
 10
662.5313176
 20
4070.1005701
 30
500.0000000
  0
VERTEX
  8
101
 10
668.8029634
 20
4067.9686387
 30
500.0000000
  0
VERTEX
  8
101
 10
678.2111701
 20
4062.6520959
 30
500.0000000
  0
VERTEX
  8
101
 10
683.4372955
 20
4061.5817015
 30
500.0000000
  0
VERTEX
  8
101
 10
691.7999819
 20
4057.3266959
 30
500.0000000
  0
VERTEX
  8
101
 10
703.2992292
 20
4049.8870788
 30
500.0000000
  0
VERTEX
  8
101
 10
704.3451186
 20
4047.7662189
 30
500.0000000
  0
VERTEX
  8
101
 10
708.5264618
 20
4045.6387160
 30
500.0000000
  0
VERTEX
  8
101
 10
713.7555396
 20
4036.0937392
 30
500.0000000
  0
VERTEX
  8
101
 10
715.8480565
 20
4029.7333737
 30
500.0000000
  0
VERTEX
  8
101
 10
715.8506398
 20
4022.3181140
 30
500.0000000
  0
VERTEX
  8
101
 10
711.6774157
 20
4001.1405149
 30
500.0000000
  0
VERTEX
  8
101
 10
708.5449143
 20
3992.6725752
 30
500.0000000
  0
VERTEX
  8
101
 10
706.4557189
 20
3989.4990354
 30
500.0000000
  0
VERTEX
  8
101
 10
706.4568261
 20
3986.3210670
 30
500.0000000
  0
VERTEX
  8
101
 10
705.4124129
 20
3984.2046356
 30
500.0000000
  0
VERTEX
  8
101
 10
705.4127820
 20
3983.1453128
 30
500.0000000
  0
VERTEX
  8
101
 10
706.4579332
 20
3983.1430985
 30
500.0000000
  0
VERTEX
  8
101
 10
704.3683688
 20
3981.0288815
 30
500.0000000
  0
VERTEX
  8
101
 10
704.3694759
 20
3977.8509130
 30
500.0000000
  0
VERTEX
  8
101
 10
704.3705831
 20
3974.6729446
 30
500.0000000
  0
VERTEX
  8
101
 10
703.3258009
 20
3973.6158361
 30
500.0000000
  0
VERTEX
  8
101
 10
703.3294914
 20
3963.0226079
 30
500.0000000
  0
VERTEX
  8
101
 10
702.2850782
 20
3960.9061766
 30
500.0000000
  0
VERTEX
  8
101
 10
702.2869235
 20
3955.6095625
 30
500.0000000
  0
VERTEX
  8
101
 10
701.2417722
 20
3955.6117768
 30
500.0000000
  0
VERTEX
  8
101
 10
701.2432484
 20
3951.3744855
 30
500.0000000
  0
VERTEX
  8
101
 10
700.1984662
 20
3950.3173770
 30
500.0000000
  0
VERTEX
  8
101
 10
700.1999424
 20
3946.0800858
 30
500.0000000
  0
VERTEX
  8
101
 10
699.1555292
 20
3943.9636544
 30
500.0000000
  0
VERTEX
  8
101
 10
699.1592197
 20
3933.3704263
 30
500.0000000
  0
VERTEX
  8
101
 10
698.1144375
 20
3932.3133178
 30
500.0000000
  0
VERTEX
  8
101
 10
698.1170208
 20
3924.8980581
 30
500.0000000
  0
VERTEX
  8
101
 10
699.1625412
 20
3923.8365209
 30
500.0000000
  0
VERTEX
  8
101
 10
699.1640174
 20
3919.5992297
 30
500.0000000
  0
VERTEX
  8
101
 10
696.0340993
 20
3903.7160304
 30
500.0000000
  0
VERTEX
  8
101
 10
697.0796196
 20
3902.6544932
 30
500.0000000
  0
VERTEX
  8
101
 10
693.9485944
 20
3889.9492624
 30
500.0000000
  0
VERTEX
  8
101
 10
694.9941147
 20
3888.8877252
 30
500.0000000
  0
VERTEX
  8
101
 10
694.9944838
 20
3887.8284024
 30
500.0000000
  0
VERTEX
  8
101
 10
690.8179382
 20
3876.1847087
 30
500.0000000
  0
VERTEX
  8
101
 10
690.8201525
 20
3869.8287718
 30
500.0000000
  0
VERTEX
  8
101
 10
689.7757394
 20
3867.7123404
 30
500.0000000
  0
VERTEX
  8
101
 10
689.7853347
 20
3840.1699472
 30
500.0000000
  0
VERTEX
  8
101
 10
690.8312241
 20
3838.0490873
 30
500.0000000
  0
VERTEX
  8
101
 10
690.8330693
 20
3832.7524732
 30
500.0000000
  0
VERTEX
  8
101
 10
692.9259552
 20
3825.3327849
 30
500.0000000
  0
VERTEX
  8
101
 10
695.0173649
 20
3822.1503878
 30
500.0000000
  0
VERTEX
  8
101
 10
693.9725827
 20
3821.0932793
 30
500.0000000
  0
VERTEX
  8
101
 10
695.0188411
 20
3817.9130966
 30
500.0000000
  0
VERTEX
  8
101
 10
696.0639924
 20
3817.9108823
 30
500.0000000
  0
VERTEX
  8
101
 10
696.0647305
 20
3815.7922366
 30
500.0000000
  0
VERTEX
  8
101
 10
704.4325836
 20
3796.7067115
 30
500.0000000
  0
VERTEX
  8
101
 10
705.4777349
 20
3796.7044972
 30
500.0000000
  0
VERTEX
  8
101
 10
705.4784730
 20
3794.5858516
 30
500.0000000
  0
VERTEX
  8
101
 10
706.5236242
 20
3794.5836373
 30
500.0000000
  0
VERTEX
  8
101
 10
706.5239933
 20
3793.5243145
 30
500.0000000
  0
VERTEX
  8
101
 10
710.7064436
 20
3788.2188432
 30
500.0000000
  0
VERTEX
  8
101
 10
710.7068127
 20
3787.1595204
 30
500.0000000
  0
VERTEX
  8
101
 10
711.7519640
 20
3787.1573061
 30
500.0000000
  0
VERTEX
  8
101
 10
711.7523330
 20
3786.0979832
 30
500.0000000
  0
VERTEX
  8
101
 10
712.7974843
 20
3786.0957689
 30
500.0000000
  0
VERTEX
  8
101
 10
712.7978533
 20
3785.0364461
 30
500.0000000
  0
VERTEX
  8
101
 10
718.0250859
 20
3780.7880833
 30
500.0000000
  0
VERTEX
  8
101
 10
718.0254549
 20
3779.7287605
 30
500.0000000
  0
VERTEX
  8
101
 10
719.0706062
 20
3779.7265462
 30
500.0000000
  0
VERTEX
  8
101
 10
724.2974697
 20
3776.5375063
 30
500.0000000
  0
VERTEX
  8
101
 10
727.4343998
 20
3772.2935721
 30
500.0000000
  0
VERTEX
  8
101
 10
729.5247023
 20
3772.2891435
 30
500.0000000
  0
VERTEX
  8
101
 10
729.5250714
 20
3771.2298207
 30
500.0000000
  0
VERTEX
  8
101
 10
732.6608942
 20
3770.1638549
 30
500.0000000
  0
VERTEX
  8
101
 10
732.6612633
 20
3769.1045321
 30
500.0000000
  0
VERTEX
  8
101
 10
737.8877577
 20
3766.9748150
 30
500.0000000
  0
VERTEX
  8
101
 10
737.8881268
 20
3765.9154922
 30
500.0000000
  0
VERTEX
  8
101
 10
738.9332781
 20
3765.9132779
 30
500.0000000
  0
VERTEX
  8
101
 10
739.9784293
 20
3765.9110636
 30
500.0000000
  0
VERTEX
  8
101
 10
743.1146213
 20
3763.7857750
 30
500.0000000
  0
VERTEX
  8
101
 10
746.2500751
 20
3763.7791321
 30
500.0000000
  0
VERTEX
  8
101
 10
746.2504441
 20
3762.7198093
 30
500.0000000
  0
VERTEX
  8
101
 10
749.3862670
 20
3761.6538436
 30
500.0000000
  0
VERTEX
  8
101
 10
749.3866361
 20
3760.5945207
 30
500.0000000
  0
VERTEX
  8
101
 10
752.5224589
 20
3759.5285550
 30
500.0000000
  0
VERTEX
  8
101
 10
752.5228280
 20
3758.4692322
 30
500.0000000
  0
VERTEX
  8
101
 10
754.6134996
 20
3757.4054808
 30
500.0000000
  0
VERTEX
  8
101
 10
756.7038021
 20
3757.4010522
 30
500.0000000
  0
VERTEX
  8
101
 10
760.8855144
 20
3754.2142265
 30
500.0000000
  0
VERTEX
  8
101
 10
765.0664885
 20
3753.1460465
 30
500.0000000
  0
VERTEX
  8
101
 10
766.1120088
 20
3752.0845094
 30
500.0000000
  0
VERTEX
  8
101
 10
768.2023114
 20
3752.0800808
 30
500.0000000
  0
VERTEX
  8
101
 10
772.3840236
 20
3748.8932551
 30
500.0000000
  0
VERTEX
  8
101
 10
775.5198465
 20
3747.8272894
 30
500.0000000
  0
VERTEX
  8
101
 10
776.5653668
 20
3746.7657522
 30
500.0000000
  0
VERTEX
  8
101
 10
787.0179867
 20
3743.5656408
 30
500.0000000
  0
VERTEX
  8
101
 10
798.5168650
 20
3737.1853465
 30
500.0000000
  0
VERTEX
  8
101
 10
818.3791678
 20
3724.4314010
 30
500.0000000
  0
VERTEX
  8
101
 10
828.8321567
 20
3720.1719667
 30
500.0000000
  0
VERTEX
  8
101
 10
853.9180016
 20
3713.7628865
 30
500.0000000
  0
VERTEX
  8
101
 10
868.5493813
 20
3715.8505319
 30
500.0000000
  0
VERTEX
  8
101
 10
890.4949747
 20
3723.2192912
 30
500.0000000
  0
VERTEX
  8
101
 10
899.9020743
 20
3721.0807168
 30
500.0000000
  0
VERTEX
  8
101
 10
897.8158313
 20
3709.4325945
 30
500.0000000
  0
VERTEX
  8
101
 10
895.7270049
 20
3705.1997318
 30
500.0000000
  0
VERTEX
  8
101
 10
895.7281121
 20
3702.0217634
 30
500.0000000
  0
VERTEX
  8
101
 10
894.6836989
 20
3699.9053321
 30
500.0000000
  0
VERTEX
  8
101
 10
896.7765848
 20
3692.4856437
 30
500.0000000
  0
VERTEX
  8
101
 10
899.9142529
 20
3686.1230639
 30
500.0000000
  0
VERTEX
  8
101
 10
891.5578404
 20
3672.3695817
 30
500.0000000
  0
VERTEX
  8
101
 10
895.7380764
 20
3673.4200474
 30
500.0000000
  0
VERTEX
  8
101
 10
890.5134272
 20
3670.2531504
 30
500.0000000
  0
VERTEX
  8
101
 10
888.4231247
 20
3670.2575790
 30
500.0000000
  0
VERTEX
  8
101
 10
885.2873018
 20
3671.3235448
 30
500.0000000
  0
VERTEX
  8
101
 10
880.0615454
 20
3671.3346163
 30
500.0000000
  0
VERTEX
  8
101
 10
874.8354200
 20
3672.4050106
 30
500.0000000
  0
VERTEX
  8
101
 10
867.5186230
 20
3674.5391564
 30
500.0000000
  0
VERTEX
  8
101
 10
854.9768077
 20
3674.5657280
 30
500.0000000
  0
VERTEX
  8
101
 10
840.3450590
 20
3673.5374054
 30
500.0000000
  0
VERTEX
  8
101
 10
824.6674208
 20
3674.6299428
 30
500.0000000
  0
VERTEX
  8
101
 10
822.5767492
 20
3675.6936942
 30
500.0000000
  0
VERTEX
  8
101
 10
818.3957751
 20
3676.7618743
 30
500.0000000
  0
VERTEX
  8
101
 10
803.7632882
 20
3677.8521973
 30
500.0000000
  0
VERTEX
  8
101
 10
793.3099302
 20
3683.1709544
 30
500.0000000
  0
VERTEX
  8
101
 10
779.7218565
 20
3686.3777088
 30
500.0000000
  0
VERTEX
  8
101
 10
769.2684985
 20
3691.6964659
 30
500.0000000
  0
VERTEX
  8
101
 10
751.4994507
 20
3695.9714004
 30
500.0000000
  0
VERTEX
  8
101
 10
737.9106389
 20
3701.2968004
 30
500.0000000
  0
VERTEX
  8
101
 10
718.0531337
 20
3700.2795494
 30
500.0000000
  0
VERTEX
  8
101
 10
719.0982850
 20
3700.2773350
 30
500.0000000
  0
VERTEX
  8
101
 10
715.9613550
 20
3704.5212692
 30
500.0000000
  0
VERTEX
  8
101
 10
710.7359677
 20
3703.4730179
 30
500.0000000
  0
VERTEX
  8
101
 10
708.6460342
 20
3702.4181237
 30
500.0000000
  0
VERTEX
  8
101
 10
703.4202778
 20
3702.4291952
 30
500.0000000
  0
VERTEX
  8
101
 10
701.3303443
 20
3701.3743010
 30
500.0000000
  0
VERTEX
  8
101
 10
695.0594367
 20
3701.3875868
 30
500.0000000
  0
VERTEX
  8
101
 10
685.6538133
 20
3699.2888699
 30
500.0000000
  0
VERTEX
  8
101
 10
683.5638798
 20
3698.2339757
 30
500.0000000
  0
VERTEX
  8
101
 10
677.2933412
 20
3697.1879387
 30
500.0000000
  0
VERTEX
  8
101
 10
676.2489281
 20
3695.0715074
 30
500.0000000
  0
VERTEX
  8
101
 10
669.9780204
 20
3695.0847932
 30
500.0000000
  0
VERTEX
  8
101
 10
668.9332382
 20
3694.0276847
 30
500.0000000
  0
VERTEX
  8
101
 10
662.6619615
 20
3695.1002934
 30
500.0000000
  0
VERTEX
  8
101
 10
656.3910539
 20
3695.1135792
 30
500.0000000
  0
VERTEX
  8
101
 10
651.1686190
 20
3685.5907454
 30
500.0000000
  0
VERTEX
  8
101
 10
651.1689880
 20
3684.5314225
 30
500.0000000
  0
VERTEX
  8
101
 10
643.8540363
 20
3681.3689542
 30
500.0000000
  0
VERTEX
  8
101
 10
637.5846048
 20
3677.1449488
 30
500.0000000
  0
VERTEX
  8
101
 10
634.4506272
 20
3672.9143004
 30
500.0000000
  0
VERTEX
  8
101
 10
629.2252399
 20
3671.8660491
 30
500.0000000
  0
VERTEX
  8
101
 10
627.1364136
 20
3667.6331865
 30
500.0000000
  0
VERTEX
  8
101
 10
615.6408567
 20
3664.4795754
 30
500.0000000
  0
VERTEX
  8
101
 10
602.0564735
 20
3657.0931016
 30
500.0000000
  0
VERTEX
  8
101
 10
601.0116913
 20
3656.0359931
 30
500.0000000
  0
VERTEX
  8
101
 10
594.7411527
 20
3654.9899561
 30
500.0000000
  0
VERTEX
  8
101
 10
587.4269390
 20
3649.7088421
 30
500.0000000
  0
VERTEX
  8
101
 10
587.4276771
 20
3647.5901965
 30
500.0000000
  0
VERTEX
  8
101
 10
581.1578766
 20
3644.4255139
 30
500.0000000
  0
VERTEX
  8
101
 10
572.7988808
 20
3638.0872914
 30
500.0000000
  0
VERTEX
  8
101
 10
566.5287112
 20
3635.9819316
 30
500.0000000
  0
VERTEX
  8
101
 10
562.3499514
 20
3630.6941747
 30
500.0000000
  0
VERTEX
  8
101
 10
561.3059073
 20
3627.5184206
 30
500.0000000
  0
VERTEX
  8
101
 10
553.9920627
 20
3621.1779838
 30
500.0000000
  0
VERTEX
  8
101
 10
548.7685206
 20
3614.8331184
 30
500.0000000
  0
VERTEX
  8
101
 10
541.4579974
 20
3598.9587763
 30
500.0000000
  0
VERTEX
  8
101
 10
538.3266032
 20
3587.3128683
 30
500.0000000
  0
VERTEX
  8
101
 10
537.2818210
 20
3586.2557598
 30
500.0000000
  0
VERTEX
  8
101
 10
535.1933637
 20
3580.9635743
 30
500.0000000
  0
VERTEX
  8
101
 10
535.1941018
 20
3578.8449287
 30
500.0000000
  0
VERTEX
  8
101
 10
529.9727740
 20
3566.1441264
 30
500.0000000
  0
VERTEX
  8
101
 10
528.9290989
 20
3561.9090494
 30
500.0000000
  0
VERTEX
  8
101
 10
525.7962285
 20
3554.5004326
 30
500.0000000
  0
VERTEX
  8
101
 10
524.7529225
 20
3549.2060328
 30
500.0000000
  0
VERTEX
  8
101
 10
521.6193139
 20
3543.9160617
 30
500.0000000
  0
VERTEX
  8
101
 10
520.5749007
 20
3541.7996304
 30
500.0000000
  0
VERTEX
  8
101
 10
513.2632704
 20
3529.1032567
 30
500.0000000
  0
VERTEX
  8
101
 10
501.7702969
 20
3518.5343859
 30
500.0000000
  0
VERTEX
  8
101
 10
494.4579285
 20
3507.9566578
 30
500.0000000
  0
VERTEX
  8
101
 10
479.8261797
 20
3506.9283353
 30
500.0000000
  0
VERTEX
  8
101
 10
471.4623862
 20
3514.3613094
 30
500.0000000
  0
VERTEX
  8
101
 10
471.4634933
 20
3511.1833410
 30
500.0000000
  0
VERTEX
  8
101
 10
471.4620171
 20
3515.4206322
 30
500.0000000
  0
VERTEX
  8
101
 10
467.2788287
 20
3522.8447491
 30
500.0000000
  0
VERTEX
  8
101
 10
467.2777215
 20
3526.0227176
 30
500.0000000
  0
VERTEX
  8
101
 10
464.1404225
 20
3531.3259746
 30
500.0000000
  0
VERTEX
  8
101
 10
466.2288798
 20
3536.6181601
 30
500.0000000
  0
VERTEX
  8
101
 10
465.1818832
 20
3541.9169884
 30
500.0000000
  0
VERTEX
  8
101
 10
466.2262964
 20
3544.0334198
 30
500.0000000
  0
VERTEX
  8
101
 10
466.2255583
 20
3546.1520654
 30
500.0000000
  0
VERTEX
  8
101
 10
467.2699715
 20
3548.2684967
 30
500.0000000
  0
VERTEX
  8
101
 10
466.2222369
 20
3555.6859707
 30
500.0000000
  0
VERTEX
  8
101
 10
467.2662810
 20
3558.8617249
 30
500.0000000
  0
VERTEX
  8
101
 10
467.2651738
 20
3562.0396933
 30
500.0000000
  0
VERTEX
  8
101
 10
468.3099561
 20
3563.0968018
 30
500.0000000
  0
VERTEX
  8
101
 10
468.3047893
 20
3577.9273213
 30
500.0000000
  0
VERTEX
  8
101
 10
467.2555785
 20
3589.5820865
 30
500.0000000
  0
VERTEX
  8
101
 10
464.1160651
 20
3601.2412804
 30
500.0000000
  0
VERTEX
  8
101
 10
462.0246554
 20
3604.4236775
 30
500.0000000
  0
VERTEX
  8
101
 10
460.9783970
 20
3607.6038602
 30
500.0000000
  0
VERTEX
  8
101
 10
457.8422051
 20
3609.7291488
 30
500.0000000
  0
VERTEX
  8
101
 10
459.9321386
 20
3610.7840430
 30
500.0000000
  0
VERTEX
  8
101
 10
457.8403598
 20
3615.0257629
 30
500.0000000
  0
VERTEX
  8
101
 10
457.8396217
 20
3617.1444085
 30
500.0000000
  0
VERTEX
  8
101
 10
450.5172890
 20
3635.1683965
 30
500.0000000
  0
VERTEX
  8
101
 10
447.3748232
 20
3655.3021729
 30
500.0000000
  0
VERTEX
  8
101
 10
446.3263505
 20
3664.8382925
 30
500.0000000
  0
VERTEX
  8
101
 10
451.5473092
 20
3678.5984176
 30
500.0000000
  0
VERTEX
  8
101
 10
465.1305852
 20
3689.1628598
 30
500.0000000
  0
VERTEX
  8
101
 10
496.4799567
 20
3703.9269501
 30
500.0000000
  0
VERTEX
  8
101
 10
497.5243699
 20
3706.0433815
 30
500.0000000
  0
VERTEX
  8
101
 10
499.6143034
 20
3707.0982757
 30
500.0000000
  0
VERTEX
  8
101
 10
506.9285170
 20
3712.3793896
 30
500.0000000
  0
VERTEX
  8
101
 10
510.0636018
 20
3713.4320695
 30
500.0000000
  0
VERTEX
  8
101
 10
522.6028337
 20
3720.8207576
 30
500.0000000
  0
VERTEX
  8
101
 10
527.8285901
 20
3720.8096861
 30
500.0000000
  0
VERTEX
  8
101
 10
527.8274829
 20
3723.9876545
 30
500.0000000
  0
VERTEX
  8
101
 10
532.0069809
 20
3727.1567658
 30
500.0000000
  0
VERTEX
  8
101
 10
534.0969144
 20
3728.2116600
 30
500.0000000
  0
VERTEX
  8
101
 10
536.1872169
 20
3728.2072314
 30
500.0000000
  0
VERTEX
  8
101
 10
546.6357772
 20
3736.6596709
 30
500.0000000
  0
VERTEX
  8
101
 10
549.7708620
 20
3737.7123508
 30
500.0000000
  0
VERTEX
  8
101
 10
549.7704930
 20
3738.7716736
 30
500.0000000
  0
VERTEX
  8
101
 10
554.9944041
 20
3744.0572161
 30
500.0000000
  0
VERTEX
  8
101
 10
557.0843376
 20
3745.1121104
 30
500.0000000
  0
VERTEX
  8
101
 10
560.2183152
 20
3749.3427587
 30
500.0000000
  0
VERTEX
  8
101
 10
564.3967060
 20
3755.6898384
 30
500.0000000
  0
VERTEX
  8
101
 10
564.3955988
 20
3758.8678068
 30
500.0000000
  0
VERTEX
  8
101
 10
571.7057529
 20
3775.8014718
 30
500.0000000
  0
VERTEX
  8
101
 10
572.7509042
 20
3775.7992575
 30
500.0000000
  0
VERTEX
  8
101
 10
572.7479518
 20
3784.2738400
 30
500.0000000
  0
VERTEX
  8
101
 10
573.7931031
 20
3784.2716257
 30
500.0000000
  0
VERTEX
  8
101
 10
572.7479518
 20
3784.2738400
 30
500.0000000
  0
VERTEX
  8
101
 10
572.7449994
 20
3792.7484225
 30
500.0000000
  0
VERTEX
  8
101
 10
571.6994791
 20
3793.8099596
 30
500.0000000
  0
VERTEX
  8
101
 10
571.6980029
 20
3798.0472509
 30
500.0000000
  0
VERTEX
  8
101
 10
570.6517444
 20
3801.2274336
 30
500.0000000
  0
VERTEX
  8
101
 10
570.6506373
 20
3804.4054021
 30
500.0000000
  0
VERTEX
  8
101
 10
569.6036408
 20
3809.7042305
 30
500.0000000
  0
VERTEX
  8
101
 10
565.4186071
 20
3822.4249615
 30
500.0000000
  0
VERTEX
  8
101
 10
564.3734558
 20
3822.4271758
 30
500.0000000
  0
VERTEX
  8
101
 10
563.3279355
 20
3823.4887129
 30
500.0000000
  0
VERTEX
  8
101
 10
563.3275664
 20
3824.5480357
 30
500.0000000
  0
VERTEX
  8
101
 10
561.2361567
 20
3827.7304328
 30
500.0000000
  0
VERTEX
  8
101
 10
561.2354186
 20
3829.8490784
 30
500.0000000
  0
VERTEX
  8
101
 10
560.1902673
 20
3829.8512927
 30
500.0000000
  0
VERTEX
  8
101
 10
559.1447470
 20
3830.9128298
 30
500.0000000
  0
VERTEX
  8
101
 10
558.0981195
 20
3835.1523354
 30
500.0000000
  0
VERTEX
  8
101
 10
557.0529683
 20
3835.1545497
 30
500.0000000
  0
VERTEX
  8
101
 10
556.0074479
 20
3836.2160868
 30
500.0000000
  0
VERTEX
  8
101
 10
553.9156692
 20
3840.4578067
 30
500.0000000
  0
VERTEX
  8
101
 10
550.7791082
 20
3843.6424180
 30
500.0000000
  0
VERTEX
  8
101
 10
548.6865914
 20
3850.0027835
 30
500.0000000
  0
VERTEX
  8
101
 10
547.6414401
 20
3850.0049979
 30
500.0000000
  0
VERTEX
  8
101
 10
547.6407020
 20
3852.1236435
 30
500.0000000
  0
VERTEX
  8
101
 10
546.5955507
 20
3852.1258578
 30
500.0000000
  0
VERTEX
  8
101
 10
546.5944436
 20
3855.3038262
 30
500.0000000
  0
VERTEX
  8
101
 10
545.5492923
 20
3855.3060405
 30
500.0000000
  0
VERTEX
  8
101
 10
545.5478161
 20
3859.5433318
 30
500.0000000
  0
VERTEX
  8
101
 10
542.4079337
 20
3872.2618485
 30
500.0000000
  0
VERTEX
  8
101
 10
541.3620443
 20
3874.3827084
 30
500.0000000
  0
VERTEX
  8
101
 10
542.4064575
 20
3876.4991398
 30
500.0000000
  0
VERTEX
  8
101
 10
543.4490254
 20
3883.9121852
 30
500.0000000
  0
VERTEX
  8
101
 10
545.5378517
 20
3888.1450478
 30
500.0000000
  0
VERTEX
  8
101
 10
545.5367446
 20
3891.3230163
 30
500.0000000
  0
VERTEX
  8
101
 10
548.6707222
 20
3895.5536646
 30
500.0000000
  0
VERTEX
  8
101
 10
553.8924190
 20
3907.1951441
 30
500.0000000
  0
VERTEX
  8
101
 10
555.9823525
 20
3908.2500383
 30
500.0000000
  0
VERTEX
  8
101
 10
557.0263966
 20
3911.4257924
 30
500.0000000
  0
VERTEX
  8
101
 10
562.2506768
 20
3915.6520122
 30
500.0000000
  0
VERTEX
  8
101
 10
562.2510458
 20
3914.5926894
 30
500.0000000
  0
VERTEX
  8
101
 10
562.2477244
 20
3924.1265947
 30
500.0000000
  0
VERTEX
  8
101
 10
567.4697902
 20
3934.7087513
 30
500.0000000
  0
VERTEX
  8
101
 10
570.6011845
 20
3946.3546594
 30
500.0000000
  0
VERTEX
  8
101
 10
570.5997083
 20
3950.5919507
 30
500.0000000
  0
VERTEX
  8
101
 10
571.6444905
 20
3951.6490592
 30
500.0000000
  0
VERTEX
  8
101
 10
571.6444905
 20
3951.6490592
 30
500.0000000
  0
VERTEX
  8
101
 10
570.5978630
 20
3955.8885648
 30
500.0000000
  0
VERTEX
  8
101
 10
568.5060843
 20
3960.1302846
 30
500.0000000
  0
VERTEX
  8
101
 10
567.4605640
 20
3961.1918217
 30
500.0000000
  0
VERTEX
  8
101
 10
566.4154127
 20
3961.1940360
 30
500.0000000
  0
VERTEX
  8
101
 10
564.3243721
 20
3963.3171103
 30
500.0000000
  0
VERTEX
  8
101
 10
564.3240030
 20
3964.3764331
 30
500.0000000
  0
VERTEX
  8
101
 10
562.2329624
 20
3966.4995073
 30
500.0000000
  0
VERTEX
  8
101
 10
561.1878111
 20
3966.5017216
 30
500.0000000
  0
VERTEX
  8
101
 10
561.1874420
 20
3967.5610445
 30
500.0000000
  0
VERTEX
  8
101
 10
558.0516192
 20
3968.6270102
 30
500.0000000
  0
VERTEX
  8
101
 10
546.5549552
 20
3968.6513675
 30
500.0000000
  0
VERTEX
  8
101
 10
543.4198704
 20
3967.5986876
 30
500.0000000
  0
VERTEX
  8
101
 10
542.3750882
 20
3966.5415791
 30
500.0000000
  0
VERTEX
  8
101
 10
538.1952212
 20
3964.4317907
 30
500.0000000
  0
VERTEX
  8
101
 10
536.1056567
 20
3962.3175737
 30
500.0000000
  0
VERTEX
  8
101
 10
535.0616126
 20
3959.1418195
 30
500.0000000
  0
VERTEX
  8
101
 10
525.6578345
 20
3951.7464885
 30
500.0000000
  0
VERTEX
  8
101
 10
525.6600488
 20
3945.3905516
 30
500.0000000
  0
VERTEX
  8
101
 10
524.6148975
 20
3945.3927660
 30
500.0000000
  0
VERTEX
  8
101
 10
520.4398282
 20
3929.5117809
 30
500.0000000
  0
VERTEX
  8
101
 10
519.3950460
 20
3928.4546724
 30
500.0000000
  0
VERTEX
  8
101
 10
519.3968912
 20
3923.1580583
 30
500.0000000
  0
VERTEX
  8
101
 10
515.2221909
 20
3906.2177505
 30
500.0000000
  0
VERTEX
  8
101
 10
513.1318884
 20
3906.2221791
 30
500.0000000
  0
VERTEX
  8
101
 10
506.8657784
 20
3892.4642683
 30
500.0000000
  0
VERTEX
  8
101
 10
504.7758449
 20
3891.4093741
 30
500.0000000
  0
VERTEX
  8
101
 10
499.5519338
 20
3886.1238316
 30
500.0000000
  0
VERTEX
  8
101
 10
495.3739121
 20
3878.7174291
 30
500.0000000
  0
VERTEX
  8
101
 10
494.3291299
 20
3877.6603205
 30
500.0000000
  0
VERTEX
  8
101
 10
493.2850857
 20
3874.4845664
 30
500.0000000
  0
VERTEX
  8
101
 10
489.1059568
 20
3870.2561324
 30
500.0000000
  0
VERTEX
  8
101
 10
485.9712411
 20
3868.1441296
 30
500.0000000
  0
VERTEX
  8
101
 10
477.6133524
 20
3858.6279387
 30
500.0000000
  0
VERTEX
  8
101
 10
471.3431829
 20
3856.5225789
 30
500.0000000
  0
VERTEX
  8
101
 10
472.3883341
 20
3856.5203646
 30
500.0000000
  0
VERTEX
  8
101
 10
468.2099433
 20
3850.1732849
 30
500.0000000
  0
VERTEX
  8
101
 10
466.1200098
 20
3849.1183907
 30
500.0000000
  0
VERTEX
  8
101
 10
446.2691476
 20
3829.0333290
 30
500.0000000
  0
VERTEX
  8
101
 10
442.0878044
 20
3831.1608318
 30
500.0000000
  0
VERTEX
  8
101
 10
439.9975019
 20
3831.1652604
 30
500.0000000
  0
VERTEX
  8
101
 10
435.8180039
 20
3827.9961492
 30
500.0000000
  0
VERTEX
  8
101
 10
429.5463582
 20
3830.1280807
 30
500.0000000
  0
VERTEX
  8
101
 10
424.3206018
 20
3830.1391522
 30
500.0000000
  0
VERTEX
  8
101
 10
424.3209709
 20
3829.0798294
 30
500.0000000
  0
VERTEX
  8
101
 10
410.7340043
 20
3829.1086153
 30
500.0000000
  0
VERTEX
  8
101
 10
403.4190526
 20
3825.9461470
 30
500.0000000
  0
VERTEX
  8
101
 10
381.4730901
 20
3819.6367105
 30
500.0000000
  0
VERTEX
  8
101
 10
374.1599836
 20
3811.1776281
 30
500.0000000
  0
VERTEX
  8
101
 10
371.0252679
 20
3809.0656253
 30
500.0000000
  0
VERTEX
  8
101
 10
366.8465081
 20
3803.7778685
 30
500.0000000
  0
VERTEX
  8
101
 10
364.7569436
 20
3801.6636514
 30
500.0000000
  0
VERTEX
  8
101
 10
361.6218589
 20
3800.6109715
 30
500.0000000
  0
VERTEX
  8
101
 10
358.4886193
 20
3794.2616776
 30
500.0000000
  0
VERTEX
  8
101
 10
355.3542727
 20
3791.0903520
 30
500.0000000
  0
VERTEX
  8
101
 10
354.3102286
 20
3787.9145979
 30
500.0000000
  0
VERTEX
  8
101
 10
353.2654463
 20
3786.8574894
 30
500.0000000
  0
VERTEX
  8
101
 10
351.1758819
 20
3784.7432723
 30
500.0000000
  0
VERTEX
  8
101
 10
345.9519708
 20
3779.4577298
 30
500.0000000
  0
VERTEX
  8
101
 10
341.7735800
 20
3773.1106501
 30
500.0000000
  0
VERTEX
  8
101
 10
341.7732109
 20
3774.1699729
 30
500.0000000
  0
VERTEX
  8
101
 10
338.6384952
 20
3772.0579702
 30
500.0000000
  0
VERTEX
  8
101
 10
337.5948201
 20
3767.8228932
 30
500.0000000
  0
VERTEX
  8
101
 10
336.5500379
 20
3766.7657847
 30
500.0000000
  0
VERTEX
  8
101
 10
335.5056248
 20
3764.6493534
 30
500.0000000
  0
VERTEX
  8
101
 10
332.3705400
 20
3763.5966735
 30
500.0000000
  0
VERTEX
  8
101
 10
331.3257578
 20
3762.5395650
 30
500.0000000
  0
VERTEX
  8
101
 10
331.3253887
 20
3763.5988878
 30
500.0000000
  0
VERTEX
  8
101
 10
322.9693452
 20
3748.7860828
 30
500.0000000
  0
VERTEX
  8
101
 10
297.8956790
 20
3720.2375101
 30
500.0000000
  0
VERTEX
  8
101
 10
277.0022489
 20
3692.7394029
 30
500.0000000
  0
VERTEX
  8
101
 10
260.2883167
 20
3668.4104070
 30
500.0000000
  0
VERTEX
  8
101
 10
226.8589761
 20
3623.9897065
 30
500.0000000
  0
VERTEX
  8
101
 10
210.1420915
 20
3608.1352931
 30
500.0000000
  0
VERTEX
  8
101
 10
209.0976783
 20
3606.0188618
 30
500.0000000
  0
VERTEX
  8
101
 10
204.9185494
 20
3601.7904277
 30
500.0000000
  0
VERTEX
  8
101
 10
202.8293540
 20
3598.6168879
 30
500.0000000
  0
VERTEX
  8
101
 10
201.7842027
 20
3598.6191022
 30
500.0000000
  0
VERTEX
  8
101
 10
200.7397896
 20
3596.5026708
 30
500.0000000
  0
VERTEX
  8
101
 10
196.5602916
 20
3593.3335596
 30
500.0000000
  0
VERTEX
  8
101
 10
193.4270521
 20
3586.9842656
 30
500.0000000
  0
VERTEX
  8
101
 10
190.2934435
 20
3581.6942945
 30
500.0000000
  0
VERTEX
  8
101
 10
189.2490304
 20
3579.5778631
 30
500.0000000
  0
VERTEX
  8
101
 10
188.2038791
 20
3579.5800774
 30
500.0000000
  0
VERTEX
  8
101
 10
186.1172671
 20
3568.9912779
 30
500.0000000
  0
VERTEX
  8
101
 10
181.9399834
 20
3559.4662298
 30
500.0000000
  0
VERTEX
  8
101
 10
181.9414596
 20
3555.2289385
 30
500.0000000
  0
VERTEX
  8
101
 10
180.8966774
 20
3554.1718300
 30
500.0000000
  0
VERTEX
  8
101
 10
180.8985227
 20
3548.8752159
 30
500.0000000
  0
VERTEX
  8
101
 10
179.8537404
 20
3547.8181074
 30
500.0000000
  0
VERTEX
  8
101
 10
174.6364722
 20
3523.4647541
 30
500.0000000
  0
VERTEX
  8
101
 10
172.5583484
 20
3488.5115298
 30
500.0000000
  0
VERTEX
  8
101
 10
176.7463345
 20
3467.3162163
 30
500.0000000
  0
VERTEX
  8
101
 10
176.7551917
 20
3441.8924687
 30
500.0000000
  0
VERTEX
  8
101
 10
178.8528752
 20
3420.7015838
 30
500.0000000
  0
VERTEX
  8
101
 10
176.7695846
 20
3400.5788789
 30
500.0000000
  0
VERTEX
  8
101
 10
171.5486259
 20
3386.8187538
 30
500.0000000
  0
VERTEX
  8
101
 10
159.0105012
 20
3376.2520973
 30
500.0000000
  0
VERTEX
  8
101
 10
145.4250108
 20
3372.0435920
 30
500.0000000
  0
VERTEX
  8
101
 10
134.9742362
 20
3369.9470894
 30
500.0000000
  0
VERTEX
  8
101
 10
131.8384133
 20
3371.0130551
 30
500.0000000
  0
VERTEX
  8
101
 10
108.8450853
 20
3371.0617698
 30
500.0000000
  0
VERTEX
  8
101
 10
106.7544137
 20
3372.1255212
 30
500.0000000
  0
VERTEX
  8
101
 10
96.3029010
 20
3372.1476642
 30
500.0000000
  0
SEQEND
  0
ENDSEC
  0
EOF
